<svg id="svg" version="1.1" xmlns="http://www.w3.org/2000/svg" xmlns:xlink="http://www.w3.org/1999/xlink" width="400" height="400" viewBox="0, 0, 400,400"><g id="svgg"><path id="path0" d="M262.400 105.276 C 257.386 107.390,254.716 109.789,252.711 113.982 C 250.981 117.600,250.918 122.540,252.556 126.181 C 253.982 129.349,254.790 128.200,242.423 140.597 C 232.062 150.983,230.707 152.123,229.780 151.236 C 226.985 148.561,217.522 149.230,213.071 152.418 L 210.793 154.049 209.496 153.143 C 208.783 152.645,206.947 151.239,205.415 150.019 C 203.883 148.798,202.229 147.530,201.740 147.200 C 200.444 146.327,193.095 140.698,192.456 140.088 C 192.107 139.755,192.007 139.182,192.177 138.485 C 194.815 127.674,189.934 119.440,179.775 117.561 C 168.034 115.391,157.482 130.430,163.829 140.286 C 164.794 141.783,164.717 141.877,153.131 153.469 L 141.862 164.743 139.986 163.793 C 126.866 157.144,112.440 171.454,119.071 184.540 C 126.476 199.154,148.400 193.995,148.400 177.638 C 148.400 174.133,148.053 172.851,146.094 169.121 C 146.013 168.968,151.080 163.710,157.353 157.437 L 168.758 146.031 171.479 147.266 C 176.615 149.597,182.418 148.849,187.611 145.186 C 188.717 144.405,188.526 144.317,192.634 147.505 C 193.275 148.002,195.690 149.848,198.000 151.607 C 208.788 159.819,207.748 158.651,207.150 161.888 C 204.753 174.855,217.603 184.508,229.520 178.693 C 236.566 175.254,239.917 165.294,236.368 158.338 C 235.946 157.509,235.600 156.598,235.600 156.313 C 235.600 155.734,257.595 133.600,258.171 133.600 C 258.373 133.600,259.721 134.080,261.169 134.667 C 274.398 140.034,287.257 125.992,280.810 113.220 C 278.902 109.441,276.241 107.167,271.481 105.251 C 270.088 104.689,263.749 104.707,262.400 105.276 M271.603 111.687 C 280.628 116.460,276.882 130.038,266.554 129.991 C 255.752 129.943,253.636 114.775,263.896 110.947 C 265.910 110.196,269.420 110.533,271.603 111.687 M181.427 124.055 C 190.391 128.268,189.166 140.075,179.500 142.626 C 168.975 145.404,163.193 129.076,173.061 124.442 C 173.687 124.148,174.470 123.759,174.800 123.577 C 175.992 122.921,179.564 123.179,181.427 124.055 M226.316 155.959 C 235.865 160.840,232.873 174.444,222.250 174.444 C 211.713 174.444,208.617 160.736,218.095 156.045 C 220.341 154.933,224.230 154.892,226.316 155.959 M137.000 168.715 C 145.528 173.005,144.265 185.092,135.074 187.149 C 127.400 188.866,120.744 180.816,124.040 173.804 C 126.442 168.694,132.348 166.375,137.000 168.715 M249.741 168.789 C 249.268 168.984,248.728 169.382,248.541 169.672 C 248.353 169.962,248.110 197.020,248.000 229.800 L 247.800 289.400 244.600 289.400 L 241.400 289.400 241.200 252.065 L 241.000 214.729 240.056 213.965 C 238.538 212.736,205.798 212.783,204.475 214.016 L 203.600 214.831 203.600 251.583 C 203.600 271.796,203.491 288.619,203.357 288.967 C 203.165 289.469,202.471 289.600,200.000 289.600 C 197.529 289.600,196.835 289.469,196.643 288.967 C 196.509 288.619,196.400 264.671,196.400 235.749 L 196.400 183.164 195.418 182.182 L 194.436 181.200 177.480 181.200 C 160.750 181.200,160.514 181.211,159.762 182.042 C 159.023 182.859,158.994 184.481,158.800 236.142 L 158.600 289.400 155.400 289.400 L 152.200 289.400 152.000 258.542 C 151.808 228.910,151.770 227.650,151.038 226.842 C 149.841 225.519,116.160 225.519,114.962 226.842 C 114.230 227.650,114.192 228.910,114.000 258.542 L 113.800 289.400 109.400 289.600 L 105.000 289.800 104.882 292.500 L 104.763 295.200 200.000 295.200 L 295.237 295.200 295.118 292.500 L 295.000 289.800 290.615 289.686 C 287.724 289.610,286.124 289.406,285.921 289.086 C 285.751 288.819,285.604 261.960,285.593 229.400 C 285.577 177.234,285.503 170.105,284.970 169.400 C 284.311 168.527,251.741 167.962,249.741 168.789 M279.800 231.800 L 279.800 289.400 267.027 289.506 C 257.075 289.588,254.183 289.500,253.933 289.106 C 253.433 288.317,253.515 175.706,254.017 174.768 C 254.419 174.017,254.899 173.993,267.117 174.094 L 279.800 174.200 279.800 231.800 M190.320 187.280 C 190.829 187.789,191.062 287.652,190.557 288.967 C 190.188 289.929,165.012 289.929,164.643 288.967 C 164.138 287.652,164.371 187.789,164.880 187.280 C 165.566 186.594,189.634 186.594,190.320 187.280 M235.000 254.200 L 235.000 289.400 222.200 289.400 L 209.400 289.400 209.297 254.600 C 209.240 235.460,209.280 219.572,209.386 219.294 C 209.537 218.898,212.336 218.812,222.290 218.894 L 235.000 219.000 235.000 254.200 M145.800 260.600 L 145.800 289.400 133.000 289.400 L 120.200 289.400 120.096 261.000 C 120.040 245.380,120.080 232.372,120.186 232.094 C 120.337 231.698,123.136 231.612,133.090 231.694 L 145.800 231.800 145.800 260.600 " stroke="none" fill="#0b0b0b" fill-rule="evenodd"></path><path id="path1" d="M0.000 200.000 L 0.000 400.000 200.000 400.000 L 400.000 400.000 400.000 200.000 L 400.000 0.000 200.000 0.000 L 0.000 0.000 0.000 200.000 M210.600 58.210 C 221.264 59.058,223.586 59.384,232.000 61.217 C 236.169 62.126,237.882 62.539,240.000 63.151 C 240.770 63.373,242.030 63.723,242.800 63.929 C 244.499 64.383,250.291 66.301,251.400 66.776 C 251.840 66.965,252.830 67.349,253.600 67.630 C 275.567 75.642,298.926 92.000,314.390 110.200 C 315.324 111.300,316.474 112.653,316.945 113.208 C 320.828 117.782,327.617 127.646,331.255 134.000 C 333.375 137.703,338.400 147.643,338.400 148.134 C 338.400 148.269,338.940 149.559,339.600 151.000 C 340.260 152.441,340.800 153.726,340.800 153.855 C 340.800 153.984,341.431 155.775,342.203 157.836 C 345.321 166.159,348.381 178.486,349.594 187.600 C 349.843 189.470,350.216 192.205,350.423 193.677 C 350.912 197.153,350.912 220.847,350.423 224.323 C 350.216 225.795,349.843 228.530,349.594 230.400 C 348.042 242.068,343.944 256.948,339.406 267.400 C 337.624 271.502,336.940 272.993,335.274 276.400 C 334.252 278.490,332.737 281.322,331.908 282.693 C 331.079 284.064,330.400 285.277,330.400 285.389 C 330.400 286.309,319.242 302.101,315.982 305.797 C 302.372 321.221,292.441 329.769,278.400 338.146 C 270.154 343.066,255.861 350.000,253.966 350.000 C 253.759 350.000,253.277 350.177,252.895 350.392 C 252.199 350.785,244.460 353.411,242.200 354.021 C 235.793 355.750,234.120 356.150,228.400 357.318 C 209.968 361.084,186.754 360.733,167.200 356.393 C 166.430 356.222,165.170 355.959,164.400 355.807 C 163.630 355.656,162.550 355.389,162.000 355.213 C 161.450 355.037,160.190 354.666,159.200 354.388 C 155.957 353.478,147.815 350.786,147.105 350.389 C 146.723 350.175,146.241 350.000,146.034 350.000 C 144.371 350.000,129.081 342.698,123.210 339.100 C 121.774 338.220,119.970 337.143,119.200 336.705 C 110.173 331.578,95.671 319.189,87.004 309.200 C 85.955 307.990,84.623 306.460,84.046 305.800 C 83.468 305.140,82.372 303.790,81.608 302.800 C 80.845 301.810,80.121 300.910,79.999 300.800 C 77.732 298.756,68.196 283.525,64.721 276.400 C 63.060 272.993,62.370 271.490,60.594 267.400 C 56.056 256.949,51.921 241.938,50.401 230.400 C 50.155 228.530,49.784 225.795,49.577 224.323 C 49.087 220.840,49.088 197.146,49.579 193.677 C 49.787 192.205,50.154 189.470,50.394 187.600 C 51.507 178.924,54.688 166.135,57.797 157.836 C 58.569 155.775,59.200 153.984,59.200 153.855 C 59.200 153.726,59.740 152.441,60.400 151.000 C 61.060 149.559,61.600 148.269,61.600 148.134 C 61.600 145.728,74.472 123.951,79.885 117.200 C 80.855 115.990,82.223 114.287,82.924 113.416 C 89.969 104.670,99.211 95.789,108.858 88.493 C 112.845 85.477,122.557 78.800,122.957 78.800 C 123.056 78.800,124.637 77.934,126.471 76.874 C 131.007 74.255,137.237 71.291,143.000 69.012 C 145.640 67.968,148.160 66.963,148.600 66.778 C 149.609 66.355,156.015 64.280,158.400 63.603 C 162.962 62.308,165.413 61.706,169.600 60.851 C 176.043 59.537,177.650 59.275,182.200 58.801 C 194.579 57.509,200.292 57.390,210.600 58.210 M191.400 63.000 C 187.000 63.277,182.860 63.605,182.200 63.730 C 181.540 63.854,179.560 64.157,177.800 64.404 C 174.107 64.921,172.468 65.269,162.400 67.674 C 158.958 68.495,145.593 73.067,142.291 74.551 C 108.636 89.683,84.450 112.752,68.531 144.905 C 67.359 147.273,66.400 149.293,66.400 149.395 C 66.400 149.497,65.887 150.709,65.261 152.090 C 63.470 156.037,58.968 170.076,57.657 175.800 C 56.484 180.923,56.056 183.283,55.227 189.200 C 54.996 190.850,54.625 193.494,54.404 195.077 C 53.883 198.784,53.879 218.595,54.398 222.671 C 56.237 237.130,57.670 243.828,61.268 254.800 C 63.992 263.106,65.703 267.343,69.182 274.400 C 72.517 281.164,80.555 294.314,82.386 296.000 C 82.505 296.110,83.529 297.415,84.661 298.900 C 94.311 311.562,110.853 326.408,123.253 333.535 C 123.994 333.961,126.400 335.342,128.600 336.605 C 131.980 338.544,140.511 342.800,141.019 342.800 C 141.106 342.800,142.145 343.243,143.329 343.785 C 144.513 344.326,146.363 345.055,147.441 345.405 C 148.518 345.754,149.760 346.203,150.200 346.401 C 151.478 346.978,160.426 349.858,162.400 350.328 C 166.060 351.199,171.447 352.454,173.000 352.796 C 173.880 352.990,176.310 353.357,178.400 353.611 C 180.490 353.865,183.280 354.257,184.600 354.482 C 187.719 355.014,212.281 355.014,215.400 354.482 C 216.720 354.257,219.510 353.865,221.600 353.611 C 223.690 353.357,226.120 352.990,227.000 352.796 C 228.654 352.432,234.441 351.082,237.600 350.325 C 241.011 349.507,253.589 345.189,256.712 343.764 C 257.873 343.234,258.898 342.800,258.988 342.800 C 259.078 342.800,261.008 341.918,263.276 340.839 C 266.820 339.154,269.517 337.692,276.731 333.544 C 289.257 326.342,306.675 310.569,316.202 297.800 C 316.858 296.920,317.497 296.110,317.621 296.000 C 317.876 295.774,322.674 288.635,325.013 285.000 C 332.941 272.682,341.541 249.697,343.944 234.400 C 344.633 230.011,345.196 225.957,345.607 222.410 C 346.118 218.002,346.115 199.359,345.602 195.329 C 344.301 185.101,343.716 181.753,341.949 174.400 C 340.367 167.817,336.514 155.947,334.606 151.776 C 334.053 150.566,333.600 149.494,333.600 149.393 C 333.600 149.293,332.641 147.273,331.469 144.905 C 325.484 132.816,319.590 123.891,310.406 113.007 C 297.361 97.548,279.222 84.313,257.709 74.556 C 254.481 73.092,241.070 68.502,237.600 67.674 C 227.523 65.267,225.892 64.921,222.200 64.405 C 220.440 64.159,218.010 63.799,216.800 63.604 C 215.590 63.410,211.810 63.142,208.400 63.009 C 204.990 62.876,201.570 62.706,200.800 62.632 C 200.030 62.558,195.800 62.723,191.400 63.000 M274.230 105.609 C 293.078 115.464,279.504 143.762,260.049 135.173 C 259.086 134.748,258.259 134.400,258.211 134.400 C 258.099 134.400,239.886 152.561,237.890 154.664 L 236.380 156.255 237.453 158.627 C 243.394 171.760,228.445 186.141,215.401 179.842 C 208.586 176.550,204.071 167.126,206.389 161.030 C 206.931 159.604,206.698 159.229,204.092 157.326 C 202.832 156.405,201.437 155.325,200.993 154.926 C 199.257 153.363,188.746 145.600,188.368 145.600 C 188.147 145.600,187.591 145.950,187.131 146.378 C 185.811 147.608,181.230 149.274,178.558 149.497 C 176.081 149.703,174.791 149.437,170.864 147.909 L 168.728 147.078 157.964 157.836 C 152.044 163.753,147.200 168.787,147.200 169.022 C 147.200 169.257,147.540 170.159,147.954 171.025 C 155.377 186.521,135.210 201.368,122.243 189.954 C 108.577 177.925,123.160 154.618,139.333 162.641 C 140.396 163.169,141.397 163.600,141.557 163.600 C 141.768 163.600,162.713 142.849,163.505 141.855 C 163.563 141.782,163.121 140.660,162.524 139.361 C 155.141 123.315,178.541 108.286,189.654 121.937 C 193.771 126.994,194.644 130.761,193.380 138.001 C 193.092 139.650,193.382 139.933,201.800 146.241 C 204.660 148.384,207.707 150.737,208.572 151.469 C 210.538 153.134,210.608 153.130,213.454 151.251 C 217.943 148.286,223.451 147.724,228.387 149.727 L 230.973 150.777 231.957 149.888 C 232.498 149.400,237.417 144.516,242.888 139.036 L 252.835 129.071 252.175 127.436 C 248.470 118.266,251.413 109.717,259.669 105.666 C 264.033 103.525,270.199 103.501,274.230 105.609 M263.319 112.055 C 258.748 114.273,256.528 120.156,258.762 124.133 C 260.229 126.745,260.514 127.062,262.151 127.904 C 266.224 129.999,269.995 129.664,273.019 126.938 C 280.410 120.276,272.234 107.730,263.319 112.055 M175.994 124.192 C 165.453 126.573,166.843 142.000,177.600 142.000 C 188.156 142.000,189.772 126.789,179.491 124.209 C 178.325 123.916,177.240 123.911,175.994 124.192 M219.600 156.267 C 215.197 157.175,212.120 164.093,214.077 168.681 C 215.579 172.201,220.734 174.697,224.266 173.614 C 236.117 169.983,231.753 153.760,219.600 156.267 M284.753 168.252 C 286.891 169.750,286.800 166.992,286.800 230.187 L 286.800 288.800 291.153 288.800 C 295.330 288.800,295.516 288.837,295.748 289.700 C 296.167 291.263,296.020 295.020,295.520 295.520 C 294.747 296.293,105.073 296.210,104.431 295.437 C 104.141 295.088,104.008 293.758,104.082 291.937 L 104.200 289.000 108.700 288.887 L 113.200 288.774 113.200 258.561 C 113.200 228.165,113.227 227.515,114.571 226.171 C 115.873 224.870,116.811 224.800,132.994 224.800 C 146.958 224.800,149.410 224.888,150.451 225.427 C 152.854 226.669,152.800 225.901,152.800 258.806 L 152.800 288.838 155.300 288.719 L 157.800 288.600 158.000 235.532 L 158.200 182.465 159.400 181.433 L 160.600 180.401 177.740 180.400 L 194.879 180.400 196.040 181.642 L 197.200 182.885 197.200 235.842 L 197.200 288.800 200.000 288.800 L 202.800 288.800 202.800 251.655 L 202.800 214.509 203.855 213.455 L 204.909 212.400 222.201 212.400 C 239.088 212.400,239.517 212.419,240.546 213.229 L 241.600 214.058 241.600 250.796 C 241.600 271.002,241.709 287.819,241.843 288.167 C 242.029 288.653,242.680 288.800,244.643 288.800 L 247.200 288.800 247.200 230.026 C 247.200 169.704,247.193 169.983,248.851 168.438 C 250.095 167.279,283.120 167.108,284.753 168.252 M129.356 169.373 C 123.906 171.745,122.205 179.060,126.100 183.375 C 126.485 183.802,126.800 184.273,126.800 184.422 C 126.800 186.039,134.185 186.881,136.954 185.580 C 147.320 180.707,139.863 164.799,129.356 169.373 M254.800 232.000 L 254.800 288.800 267.000 288.800 L 279.200 288.800 279.200 232.000 L 279.200 175.200 267.000 175.200 L 254.800 175.200 254.800 232.000 M165.600 238.200 L 165.600 288.800 177.600 288.800 L 189.600 288.800 189.600 238.200 L 189.600 187.600 177.600 187.600 L 165.600 187.600 165.600 238.200 M210.245 220.227 C 209.927 221.054,209.934 286.714,210.252 287.900 L 210.493 288.800 222.449 288.800 L 234.404 288.800 234.302 254.300 L 234.200 219.800 222.345 219.694 C 211.796 219.600,210.463 219.659,210.245 220.227 M120.643 233.033 C 120.326 233.859,120.326 287.341,120.643 288.167 C 120.857 288.725,122.326 288.800,133.043 288.800 L 145.200 288.800 145.200 260.600 L 145.200 232.400 133.043 232.400 C 122.326 232.400,120.857 232.475,120.643 233.033 " stroke="none" fill="#fbfbfb" fill-rule="evenodd"></path><path id="path2" d="M196.346 58.176 C 196.206 58.322,193.236 58.623,189.746 58.845 C 178.608 59.551,177.815 59.622,177.000 59.992 C 176.560 60.191,175.435 60.455,174.500 60.577 C 170.268 61.132,169.376 61.305,169.020 61.641 C 168.811 61.838,167.967 62.000,167.144 62.000 C 166.321 62.000,165.536 62.180,165.400 62.400 C 165.264 62.620,164.632 62.800,163.995 62.800 C 163.359 62.800,162.424 62.961,161.919 63.158 C 161.413 63.355,160.190 63.741,159.200 64.015 C 155.021 65.173,145.726 68.410,141.400 70.215 C 137.124 71.999,128.798 75.949,128.400 76.382 C 128.061 76.751,125.877 77.989,124.300 78.706 C 123.475 79.082,122.800 79.526,122.800 79.694 C 122.800 79.862,122.602 80.000,122.360 80.000 C 121.957 80.000,110.863 87.411,110.400 87.989 C 110.290 88.126,109.570 88.674,108.800 89.206 C 108.030 89.738,107.204 90.360,106.963 90.587 C 106.723 90.814,105.940 91.446,105.224 91.990 C 100.885 95.287,90.950 104.778,87.202 109.204 C 85.994 110.632,84.910 111.890,84.794 112.000 C 84.678 112.110,83.454 113.640,82.073 115.400 C 80.693 117.160,79.344 118.870,79.076 119.200 C 78.808 119.530,78.150 120.430,77.614 121.200 C 77.077 121.970,76.540 122.690,76.419 122.800 C 76.298 122.910,75.944 123.495,75.632 124.100 C 75.320 124.705,74.915 125.200,74.732 125.200 C 74.550 125.200,74.400 125.388,74.400 125.618 C 74.400 125.848,73.500 127.370,72.400 129.000 C 71.300 130.630,70.400 132.046,70.400 132.146 C 70.400 132.246,69.708 133.559,68.861 135.064 C 68.015 136.569,66.508 139.420,65.513 141.400 C 63.814 144.779,63.263 145.955,61.156 150.700 C 60.692 151.745,60.152 152.913,59.956 153.295 C 59.760 153.677,59.600 154.352,59.600 154.795 C 59.600 155.238,59.420 155.600,59.200 155.600 C 58.980 155.600,58.800 155.962,58.800 156.405 C 58.800 156.848,58.626 157.523,58.414 157.905 C 58.016 158.622,56.098 164.425,55.210 167.600 C 54.934 168.590,54.560 169.850,54.380 170.400 C 53.930 171.771,52.558 178.277,51.848 182.400 C 51.282 185.685,50.849 188.869,50.002 195.964 C 49.482 200.313,49.482 217.687,50.002 222.036 C 50.789 228.633,51.280 232.245,51.815 235.400 C 52.512 239.511,53.887 245.783,54.773 248.900 C 55.008 249.725,55.358 250.985,55.552 251.700 C 56.171 253.989,58.005 259.377,58.409 260.095 C 58.624 260.477,58.800 261.064,58.800 261.400 C 58.800 261.736,58.959 262.323,59.153 262.705 C 59.348 263.087,59.685 263.850,59.903 264.400 C 63.561 273.638,74.729 294.058,77.186 296.000 C 77.325 296.110,77.871 296.830,78.399 297.600 C 79.700 299.496,84.202 305.171,85.865 307.013 C 86.269 307.461,87.767 309.171,89.194 310.813 C 90.621 312.456,92.331 314.316,92.994 314.946 C 100.257 321.851,104.393 325.573,106.088 326.731 C 106.590 327.073,107.090 327.455,107.200 327.578 C 107.433 327.840,110.928 330.440,113.800 332.490 C 115.614 333.784,120.680 336.984,123.200 338.427 C 123.750 338.742,124.290 339.090,124.400 339.200 C 124.966 339.766,134.825 344.754,138.400 346.283 C 142.461 348.020,147.415 349.951,149.600 350.650 C 150.590 350.966,151.713 351.400,152.095 351.613 C 152.477 351.826,153.141 352.000,153.571 352.000 C 154.001 352.000,154.464 352.180,154.600 352.400 C 154.736 352.620,155.366 352.800,156.000 352.800 C 156.634 352.800,157.264 352.980,157.400 353.200 C 157.536 353.420,158.166 353.600,158.800 353.600 C 159.434 353.600,160.064 353.780,160.200 354.000 C 160.336 354.220,160.966 354.400,161.600 354.400 C 162.234 354.400,162.864 354.580,163.000 354.800 C 163.136 355.020,163.856 355.200,164.600 355.200 C 165.344 355.200,166.064 355.380,166.200 355.600 C 166.336 355.820,167.121 356.000,167.944 356.000 C 168.767 356.000,169.611 356.163,169.820 356.361 C 170.029 356.560,171.010 356.821,172.000 356.942 C 172.990 357.063,174.880 357.361,176.200 357.604 C 181.577 358.594,187.251 358.904,200.000 358.904 C 212.749 358.904,218.423 358.594,223.800 357.604 C 225.120 357.361,227.010 357.063,228.000 356.942 C 228.990 356.821,229.971 356.560,230.180 356.361 C 230.389 356.163,231.233 356.000,232.056 356.000 C 232.879 356.000,233.664 355.820,233.800 355.600 C 233.936 355.380,234.656 355.200,235.400 355.200 C 236.144 355.200,236.864 355.020,237.000 354.800 C 237.136 354.580,237.766 354.400,238.400 354.400 C 239.034 354.400,239.664 354.220,239.800 354.000 C 239.936 353.780,240.566 353.600,241.200 353.600 C 241.834 353.600,242.464 353.420,242.600 353.200 C 242.736 352.980,243.366 352.800,244.000 352.800 C 244.634 352.800,245.264 352.620,245.400 352.400 C 245.536 352.180,246.051 352.000,246.544 352.000 C 247.037 352.000,247.611 351.857,247.820 351.682 C 248.029 351.507,248.920 351.130,249.800 350.846 C 257.633 348.312,274.953 340.406,275.533 339.100 C 275.607 338.935,275.842 338.800,276.055 338.800 C 276.269 338.800,277.504 338.080,278.800 337.200 C 280.096 336.320,281.275 335.600,281.421 335.600 C 281.697 335.600,289.250 330.434,289.600 330.006 C 289.710 329.872,290.430 329.329,291.200 328.800 C 291.970 328.271,292.690 327.729,292.800 327.596 C 292.910 327.463,293.410 327.073,293.912 326.731 C 295.607 325.573,299.743 321.851,307.006 314.946 C 307.669 314.316,309.379 312.454,310.806 310.810 C 312.233 309.165,313.633 307.569,313.918 307.263 C 314.906 306.202,320.643 298.994,321.608 297.600 C 322.142 296.830,322.898 295.851,323.289 295.425 C 323.680 294.998,324.000 294.505,324.000 294.329 C 324.000 294.153,324.315 293.645,324.700 293.199 C 327.232 290.269,335.295 275.512,338.906 267.200 C 339.336 266.210,339.848 265.087,340.044 264.705 C 340.240 264.323,340.400 263.648,340.400 263.205 C 340.400 262.762,340.580 262.400,340.800 262.400 C 341.020 262.400,341.200 262.038,341.200 261.595 C 341.200 261.152,341.376 260.477,341.591 260.095 C 341.995 259.377,343.829 253.989,344.448 251.700 C 344.642 250.985,344.992 249.725,345.227 248.900 C 349.394 234.247,351.620 209.547,349.998 195.964 C 349.038 187.920,348.688 185.501,347.764 180.520 C 346.924 175.994,346.273 173.212,344.414 166.200 C 343.853 164.082,341.995 158.623,341.591 157.905 C 341.376 157.523,341.200 156.848,341.200 156.405 C 341.200 155.962,341.020 155.600,340.800 155.600 C 340.580 155.600,340.400 155.238,340.400 154.795 C 340.400 154.352,340.240 153.677,340.044 153.295 C 339.848 152.913,339.308 151.745,338.844 150.700 C 336.737 145.955,336.186 144.779,334.487 141.400 C 333.492 139.420,331.985 136.569,331.139 135.064 C 330.292 133.559,329.600 132.246,329.600 132.146 C 329.600 132.046,328.700 130.630,327.600 129.000 C 326.500 127.370,325.600 125.863,325.600 125.651 C 325.600 125.440,325.453 125.207,325.272 125.133 C 325.092 125.060,324.166 123.847,323.215 122.438 C 322.264 121.029,321.250 119.589,320.961 119.238 C 320.673 118.887,319.307 117.160,317.927 115.400 C 316.546 113.640,315.322 112.110,315.206 112.000 C 315.090 111.890,314.006 110.632,312.798 109.204 C 309.050 104.778,299.115 95.287,294.776 91.990 C 294.060 91.446,293.277 90.814,293.037 90.587 C 292.796 90.360,291.970 89.738,291.200 89.206 C 290.430 88.674,289.710 88.126,289.600 87.989 C 289.137 87.411,278.043 80.000,277.640 80.000 C 277.398 80.000,277.200 79.862,277.200 79.694 C 277.200 79.526,276.525 79.082,275.700 78.706 C 274.123 77.989,271.939 76.751,271.600 76.382 C 271.373 76.135,264.802 72.914,261.824 71.589 C 256.677 69.301,246.218 65.535,240.800 64.020 C 239.810 63.743,238.587 63.355,238.081 63.158 C 237.576 62.961,236.641 62.800,236.005 62.800 C 235.368 62.800,234.736 62.620,234.600 62.400 C 234.464 62.180,233.679 62.000,232.856 62.000 C 232.033 62.000,231.189 61.838,230.980 61.641 C 230.624 61.305,229.732 61.132,225.500 60.577 C 224.565 60.455,223.440 60.191,223.000 59.992 C 222.560 59.792,220.940 59.541,219.400 59.432 C 217.860 59.324,214.170 59.056,211.200 58.837 C 201.579 58.125,196.605 57.904,196.346 58.176 M215.233 62.786 C 216.425 62.998,219.470 63.462,222.000 63.817 C 224.530 64.173,228.130 64.819,230.000 65.253 C 231.870 65.688,234.300 66.236,235.400 66.471 C 236.500 66.707,237.850 67.036,238.400 67.203 C 238.950 67.370,240.210 67.739,241.200 68.023 C 242.190 68.307,243.171 68.688,243.380 68.870 C 243.589 69.051,244.163 69.200,244.656 69.200 C 245.149 69.200,245.664 69.380,245.800 69.600 C 245.936 69.820,246.476 70.000,247.000 70.000 C 247.524 70.000,248.064 70.180,248.200 70.400 C 248.336 70.620,248.876 70.800,249.400 70.800 C 249.924 70.800,250.464 70.980,250.600 71.200 C 250.736 71.420,251.199 71.600,251.629 71.600 C 252.059 71.600,252.723 71.759,253.105 71.953 C 253.487 72.148,254.250 72.485,254.800 72.703 C 256.210 73.261,258.842 74.455,262.861 76.360 C 264.764 77.262,266.399 78.000,266.493 78.000 C 267.499 78.000,285.523 89.152,287.451 90.967 C 288.234 91.704,289.342 92.571,290.800 93.586 C 291.570 94.123,292.290 94.665,292.400 94.793 C 292.510 94.920,294.220 96.391,296.200 98.063 C 299.433 100.792,309.368 110.742,311.400 113.285 C 311.840 113.835,312.779 114.987,313.488 115.843 C 316.448 119.422,320.000 124.093,320.000 124.406 C 320.000 124.591,320.234 124.981,320.519 125.271 C 321.406 126.175,323.600 129.522,323.600 129.972 C 323.600 130.207,323.780 130.400,324.000 130.400 C 324.220 130.400,324.400 130.593,324.400 130.828 C 324.400 131.063,324.940 132.041,325.600 133.000 C 326.260 133.959,326.800 134.922,326.800 135.139 C 326.800 135.356,326.935 135.593,327.100 135.667 C 328.121 136.120,335.747 152.118,337.079 156.600 C 337.406 157.700,337.837 158.913,338.037 159.295 C 338.237 159.677,338.400 160.264,338.400 160.600 C 338.400 161.193,338.566 161.616,339.538 163.495 C 339.792 163.987,340.000 164.741,340.000 165.171 C 340.000 165.601,340.180 166.064,340.400 166.200 C 340.620 166.336,340.800 166.966,340.800 167.600 C 340.800 168.234,340.980 168.864,341.200 169.000 C 341.420 169.136,341.600 169.856,341.600 170.600 C 341.600 171.344,341.780 172.064,342.000 172.200 C 342.220 172.336,342.400 173.056,342.400 173.800 C 342.400 174.544,342.580 175.264,342.800 175.400 C 343.020 175.536,343.200 176.231,343.200 176.944 C 343.200 177.657,343.362 178.411,343.559 178.620 C 343.756 178.829,344.031 179.810,344.169 180.800 C 344.307 181.790,344.584 183.680,344.785 185.000 C 345.839 191.921,346.056 194.017,346.445 201.000 C 346.677 205.180,346.865 208.870,346.861 209.200 C 346.826 212.086,345.939 224.810,345.613 227.100 C 345.386 228.695,345.025 231.215,344.812 232.700 C 344.598 234.185,344.310 236.210,344.171 237.200 C 344.032 238.190,343.756 239.171,343.559 239.380 C 343.362 239.589,343.200 240.343,343.200 241.056 C 343.200 241.769,343.020 242.464,342.800 242.600 C 342.580 242.736,342.400 243.456,342.400 244.200 C 342.400 244.944,342.220 245.664,342.000 245.800 C 341.780 245.936,341.600 246.656,341.600 247.400 C 341.600 248.144,341.420 248.864,341.200 249.000 C 340.980 249.136,340.800 249.766,340.800 250.400 C 340.800 251.034,340.620 251.664,340.400 251.800 C 340.180 251.936,340.000 252.399,340.000 252.829 C 340.000 253.259,339.792 254.013,339.538 254.505 C 338.566 256.384,338.400 256.807,338.400 257.400 C 338.400 257.736,338.242 258.323,338.048 258.705 C 337.855 259.087,337.377 260.390,336.987 261.600 C 336.118 264.295,332.741 272.007,330.769 275.800 C 327.981 281.164,327.398 282.201,327.100 282.333 C 326.935 282.407,326.800 282.644,326.800 282.861 C 326.800 283.078,326.260 284.041,325.600 285.000 C 324.940 285.959,324.400 286.937,324.400 287.172 C 324.400 287.407,324.220 287.600,324.000 287.600 C 323.780 287.600,323.600 287.836,323.600 288.125 C 323.600 288.413,323.264 289.009,322.854 289.450 C 322.444 289.890,321.880 290.678,321.600 291.200 C 321.320 291.722,320.941 292.341,320.756 292.575 C 320.572 292.809,319.027 294.890,317.322 297.200 C 315.618 299.510,314.038 301.595,313.812 301.834 C 313.585 302.072,312.590 303.227,311.600 304.401 C 308.297 308.314,300.241 316.445,296.800 319.336 C 294.930 320.908,293.130 322.473,292.800 322.816 C 292.470 323.158,291.570 323.871,290.800 324.400 C 290.030 324.929,289.310 325.469,289.200 325.600 C 289.090 325.731,288.370 326.271,287.600 326.800 C 286.830 327.329,286.110 327.875,286.000 328.014 C 284.511 329.898,262.742 342.400,260.952 342.400 C 260.648 342.400,260.400 342.580,260.400 342.800 C 260.400 343.020,260.128 343.200,259.795 343.200 C 259.462 343.200,258.877 343.360,258.495 343.556 C 256.760 344.446,254.063 345.589,252.600 346.054 C 251.720 346.334,250.829 346.707,250.620 346.882 C 250.411 347.057,249.837 347.200,249.344 347.200 C 248.851 347.200,248.336 347.380,248.200 347.600 C 248.064 347.820,247.549 348.000,247.056 348.000 C 246.563 348.000,245.989 348.151,245.780 348.336 C 244.605 349.374,229.173 353.215,222.800 354.055 C 208.551 355.933,191.887 356.059,179.800 354.379 C 170.346 353.066,155.641 349.591,154.220 348.336 C 154.011 348.151,153.437 348.000,152.944 348.000 C 152.451 348.000,151.936 347.820,151.800 347.600 C 151.664 347.380,151.149 347.200,150.656 347.200 C 150.163 347.200,149.589 347.057,149.380 346.882 C 149.171 346.707,148.280 346.332,147.400 346.048 C 145.795 345.532,144.006 344.795,141.839 343.756 C 141.200 343.450,140.435 343.200,140.139 343.200 C 139.842 343.200,139.600 343.020,139.600 342.800 C 139.600 342.580,139.352 342.400,139.048 342.400 C 137.258 342.400,115.489 329.898,114.000 328.014 C 113.890 327.875,113.170 327.329,112.400 326.800 C 111.630 326.271,110.910 325.731,110.800 325.600 C 110.690 325.469,109.970 324.929,109.200 324.400 C 108.430 323.871,107.530 323.159,107.200 322.817 C 106.870 322.476,105.700 321.493,104.600 320.633 C 102.613 319.080,90.130 306.672,88.600 304.730 C 88.160 304.171,87.223 303.013,86.518 302.157 C 83.537 298.536,81.152 295.416,80.326 294.055 C 79.840 293.255,79.331 292.510,79.195 292.400 C 78.661 291.969,76.400 288.431,76.400 288.028 C 76.400 287.793,76.220 287.600,76.000 287.600 C 75.780 287.600,75.600 287.407,75.600 287.172 C 75.600 286.937,75.060 285.959,74.400 285.000 C 73.740 284.041,73.200 283.078,73.200 282.861 C 73.200 282.644,73.065 282.407,72.900 282.333 C 71.884 281.882,64.277 265.934,62.914 261.400 C 62.285 259.306,61.747 257.872,61.153 256.705 C 60.959 256.323,60.800 255.659,60.800 255.229 C 60.800 254.799,60.620 254.336,60.400 254.200 C 60.180 254.064,60.000 253.601,60.000 253.171 C 60.000 252.741,59.842 252.077,59.649 251.695 C 59.020 250.449,58.400 248.166,58.400 247.095 C 58.400 246.519,58.220 245.936,58.000 245.800 C 57.780 245.664,57.600 244.944,57.600 244.200 C 57.600 243.456,57.420 242.736,57.200 242.600 C 56.980 242.464,56.800 241.744,56.800 241.000 C 56.800 240.256,56.639 239.548,56.442 239.426 C 56.245 239.305,55.988 238.529,55.870 237.703 C 55.752 236.876,55.451 234.760,55.200 233.000 C 54.949 231.240,54.573 228.630,54.364 227.200 C 54.040 224.977,53.119 211.387,53.132 209.000 C 53.146 206.134,54.036 192.944,54.359 190.800 C 55.190 185.283,55.595 182.534,55.834 180.800 C 55.970 179.810,56.244 178.829,56.441 178.620 C 56.638 178.411,56.800 177.657,56.800 176.944 C 56.800 176.231,56.980 175.536,57.200 175.400 C 57.420 175.264,57.600 174.544,57.600 173.800 C 57.600 173.056,57.780 172.336,58.000 172.200 C 58.220 172.064,58.400 171.481,58.400 170.905 C 58.400 169.834,59.020 167.551,59.649 166.305 C 59.842 165.923,60.000 165.336,60.000 165.000 C 60.000 164.407,60.166 163.984,61.138 162.105 C 61.392 161.613,61.600 160.936,61.600 160.600 C 61.600 160.264,61.763 159.677,61.963 159.295 C 62.163 158.913,62.594 157.700,62.921 156.600 C 63.788 153.681,66.609 147.268,69.342 142.000 C 70.654 139.470,71.924 136.996,72.164 136.503 C 72.404 136.010,72.735 135.605,72.900 135.603 C 73.065 135.601,73.200 135.407,73.200 135.172 C 73.200 134.937,73.740 133.959,74.400 133.000 C 75.060 132.041,75.600 131.063,75.600 130.828 C 75.600 130.593,75.780 130.400,76.000 130.400 C 76.220 130.400,76.400 130.207,76.400 129.972 C 76.400 129.548,78.696 125.985,79.218 125.600 C 79.367 125.490,79.771 124.860,80.117 124.200 C 80.688 123.111,83.091 119.969,86.510 115.843 C 87.219 114.987,88.160 113.838,88.600 113.290 C 90.669 110.713,100.583 100.783,103.800 98.065 C 105.780 96.392,107.490 94.920,107.600 94.793 C 107.710 94.665,108.430 94.126,109.200 93.594 C 109.970 93.062,110.805 92.440,111.055 92.213 C 112.163 91.209,113.308 90.348,116.208 88.343 C 117.912 87.164,119.595 86.020,119.947 85.800 C 120.299 85.580,121.310 84.930,122.193 84.355 C 123.945 83.216,133.231 78.000,133.507 78.000 C 133.601 78.000,135.236 77.262,137.139 76.360 C 141.158 74.455,143.790 73.261,145.200 72.703 C 145.750 72.485,146.513 72.148,146.895 71.953 C 147.277 71.759,147.941 71.600,148.371 71.600 C 148.801 71.600,149.264 71.420,149.400 71.200 C 149.536 70.980,150.076 70.800,150.600 70.800 C 151.124 70.800,151.664 70.620,151.800 70.400 C 151.936 70.180,152.476 70.000,153.000 70.000 C 153.524 70.000,154.064 69.820,154.200 69.600 C 154.336 69.380,154.851 69.200,155.344 69.200 C 155.837 69.200,156.411 69.051,156.620 68.870 C 156.829 68.688,157.810 68.307,158.800 68.023 C 159.790 67.739,161.050 67.370,161.600 67.203 C 162.150 67.036,163.500 66.707,164.600 66.471 C 165.700 66.236,168.130 65.686,170.000 65.250 C 171.870 64.814,175.560 64.157,178.200 63.789 C 180.840 63.422,183.720 62.978,184.600 62.803 C 186.914 62.344,212.668 62.329,215.233 62.786 M265.907 111.090 C 266.626 111.179,267.706 111.177,268.307 111.086 C 268.908 110.995,268.320 110.922,267.000 110.924 C 265.680 110.926,265.188 111.001,265.907 111.090 M176.700 117.082 C 177.195 117.178,178.005 117.178,178.500 117.082 C 178.995 116.987,178.590 116.909,177.600 116.909 C 176.610 116.909,176.205 116.987,176.700 117.082 M282.928 120.400 C 282.928 121.830,283.001 122.415,283.089 121.700 C 283.178 120.985,283.178 119.815,283.089 119.100 C 283.001 118.385,282.928 118.970,282.928 120.400 M165.775 122.100 L 164.600 123.400 165.900 122.225 C 167.112 121.130,167.384 120.800,167.075 120.800 C 167.006 120.800,166.421 121.385,165.775 122.100 M250.378 131.900 L 249.000 133.400 250.500 132.022 C 251.896 130.738,252.184 130.400,251.878 130.400 C 251.812 130.400,251.137 131.075,250.378 131.900 M168.101 133.000 C 168.105 133.880,168.187 134.193,168.283 133.695 C 168.379 133.198,168.375 132.478,168.275 132.095 C 168.175 131.713,168.096 132.120,168.101 133.000 M247.178 135.100 L 245.800 136.600 247.300 135.222 C 248.696 133.938,248.984 133.600,248.678 133.600 C 248.612 133.600,247.937 134.275,247.178 135.100 M243.978 138.300 L 242.600 139.800 244.100 138.422 C 245.496 137.138,245.784 136.800,245.478 136.800 C 245.412 136.800,244.737 137.475,243.978 138.300 M192.432 138.838 C 192.414 139.189,192.805 139.819,193.300 140.238 C 194.192 140.994,194.194 140.993,193.552 140.200 C 193.196 139.760,192.805 139.130,192.684 138.800 C 192.497 138.291,192.458 138.296,192.432 138.838 M240.975 141.300 L 239.800 142.600 241.100 141.425 C 241.815 140.779,242.400 140.194,242.400 140.125 C 242.400 139.816,242.070 140.088,240.975 141.300 M152.797 153.100 L 141.800 164.200 152.900 153.203 C 159.005 147.154,164.000 142.159,164.000 142.103 C 164.000 141.820,163.017 142.785,152.797 153.100 M245.792 146.100 L 241.800 150.200 245.900 146.208 C 248.155 144.012,250.000 142.167,250.000 142.108 C 250.000 141.818,249.501 142.292,245.792 146.100 M237.978 144.300 L 236.600 145.800 238.100 144.422 C 239.496 143.138,239.784 142.800,239.478 142.800 C 239.412 142.800,238.737 143.475,237.978 144.300 M221.107 149.090 C 221.826 149.179,222.906 149.177,223.507 149.086 C 224.108 148.995,223.520 148.922,222.200 148.924 C 220.880 148.926,220.388 149.001,221.107 149.090 M231.775 150.500 L 230.600 151.800 231.900 150.625 C 232.615 149.979,233.200 149.394,233.200 149.325 C 233.200 149.016,232.870 149.288,231.775 150.500 M215.375 158.500 L 214.200 159.800 215.500 158.625 C 216.215 157.979,216.800 157.394,216.800 157.325 C 216.800 157.016,216.470 157.288,215.375 158.500 M212.909 164.800 C 212.909 165.790,212.987 166.195,213.082 165.700 C 213.178 165.205,213.178 164.395,213.082 163.900 C 212.987 163.405,212.909 163.810,212.909 164.800 M228.778 171.500 L 227.400 173.000 228.900 171.622 C 230.296 170.338,230.584 170.000,230.278 170.000 C 230.212 170.000,229.537 170.675,228.778 171.500 M286.198 229.767 C 286.200 282.019,286.270 288.952,286.800 289.097 C 287.243 289.218,287.269 289.168,286.901 288.908 C 286.508 288.629,286.381 276.124,286.299 229.577 L 286.196 170.600 286.198 229.767 M259.000 174.683 C 270.077 174.966,279.508 174.974,279.339 174.700 C 279.236 174.535,273.628 174.438,266.876 174.486 C 260.124 174.533,256.580 174.622,259.000 174.683 M254.198 231.967 C 254.200 282.263,254.270 288.953,254.800 289.097 C 255.243 289.218,255.269 289.168,254.901 288.908 C 254.508 288.629,254.381 276.564,254.299 231.777 L 254.196 175.000 254.198 231.967 M116.920 177.600 C 116.920 178.810,116.995 179.305,117.087 178.700 C 117.178 178.095,117.178 177.105,117.087 176.500 C 116.995 175.895,116.920 176.390,116.920 177.600 M169.300 180.700 C 173.865 180.764,181.335 180.764,185.900 180.700 C 190.465 180.635,186.730 180.583,177.600 180.583 C 168.470 180.583,164.735 180.635,169.300 180.700 M221.505 181.083 C 222.002 181.179,222.722 181.175,223.105 181.075 C 223.487 180.975,223.080 180.896,222.200 180.901 C 221.320 180.905,221.007 180.987,221.505 181.083 M171.500 187.499 C 174.855 187.566,180.345 187.566,183.700 187.499 C 187.055 187.432,184.310 187.378,177.600 187.378 C 170.890 187.378,168.145 187.432,171.500 187.499 M164.998 238.167 C 165.000 282.952,165.071 288.953,165.600 289.097 C 166.043 289.218,166.069 289.168,165.702 288.908 C 165.309 288.630,165.181 277.804,165.099 237.977 L 164.995 187.400 164.998 238.167 M190.000 238.280 C 189.890 266.264,189.936 289.024,190.102 288.858 C 190.267 288.693,190.357 265.797,190.302 237.978 L 190.200 187.400 190.000 238.280 M132.100 193.876 C 132.485 193.976,133.115 193.976,133.500 193.876 C 133.885 193.775,133.570 193.693,132.800 193.693 C 132.030 193.693,131.715 193.775,132.100 193.876 M213.927 212.700 C 218.617 212.764,226.177 212.764,230.727 212.699 C 235.277 212.635,231.440 212.583,222.200 212.583 C 212.960 212.583,209.237 212.636,213.927 212.700 M202.898 252.467 C 202.821 281.032,202.694 288.776,202.300 288.935 C 201.908 289.093,201.911 289.144,202.313 289.168 C 203.202 289.223,203.209 288.917,203.101 252.200 L 202.996 216.200 202.898 252.467 M209.861 219.500 C 209.759 219.665,213.303 219.754,217.738 219.698 C 233.075 219.503,234.549 219.371,222.324 219.286 C 215.572 219.238,209.964 219.335,209.861 219.500 M124.927 225.500 C 129.507 225.564,136.887 225.564,141.327 225.499 C 145.767 225.435,142.020 225.383,133.000 225.383 C 123.980 225.383,120.347 225.435,124.927 225.500 M113.790 258.200 C 113.790 274.920,113.840 281.702,113.900 273.270 C 113.960 264.839,113.960 251.159,113.900 242.870 C 113.839 234.582,113.790 241.480,113.790 258.200 " stroke="none" fill="#a5a5a5" fill-rule="evenodd"></path><path id="path3" d="M265.700 104.691 C 266.525 104.778,267.875 104.778,268.700 104.691 C 269.525 104.605,268.850 104.534,267.200 104.534 C 265.550 104.534,264.875 104.605,265.700 104.691 M260.839 105.422 C 260.091 105.747,259.579 106.112,259.701 106.234 C 259.822 106.356,260.255 106.281,260.661 106.069 C 261.067 105.856,261.850 105.496,262.400 105.268 C 262.950 105.040,263.130 104.849,262.800 104.843 C 262.470 104.836,261.588 105.097,260.839 105.422 M271.600 105.268 C 272.150 105.496,272.933 105.856,273.339 106.069 C 273.745 106.281,274.157 106.377,274.253 106.280 C 274.491 106.042,271.815 104.793,271.140 104.827 C 270.843 104.842,271.050 105.040,271.600 105.268 M257.334 107.549 C 255.754 108.693,253.728 111.013,252.858 112.674 C 251.988 114.333,252.404 114.151,253.530 112.378 C 254.796 110.385,256.894 108.116,258.400 107.110 C 258.950 106.743,259.292 106.433,259.160 106.421 C 259.028 106.409,258.206 106.917,257.334 107.549 M275.590 107.070 C 277.571 108.531,279.701 111.023,280.818 113.187 C 281.447 114.404,281.970 115.185,281.981 114.921 C 282.047 113.282,278.230 108.403,275.800 107.021 C 274.611 106.345,274.609 106.346,275.590 107.070 M265.900 110.682 C 266.395 110.778,267.205 110.778,267.700 110.682 C 268.195 110.587,267.790 110.509,266.800 110.509 C 265.810 110.509,265.405 110.587,265.900 110.682 M262.400 111.642 C 258.604 113.918,256.258 118.377,257.205 121.516 C 257.470 122.398,257.538 122.190,257.570 120.400 C 257.640 116.341,259.848 113.066,263.618 111.431 C 264.378 111.101,264.730 110.825,264.400 110.817 C 264.070 110.809,263.170 111.181,262.400 111.642 M271.999 112.321 C 274.946 114.323,276.559 117.526,276.316 120.888 C 276.224 122.164,276.292 122.980,276.468 122.704 C 278.049 120.214,274.147 111.510,271.500 111.621 C 271.225 111.633,271.450 111.948,271.999 112.321 M282.259 117.400 C 282.399 118.500,282.577 119.475,282.656 119.567 C 282.999 119.964,282.750 116.541,282.397 116.000 C 282.130 115.590,282.086 116.035,282.259 117.400 M251.052 117.700 C 250.729 118.907,250.786 122.021,251.148 122.942 C 251.309 123.350,251.440 122.135,251.440 120.242 C 251.440 116.514,251.415 116.347,251.052 117.700 M173.600 117.621 C 173.170 117.914,173.454 117.954,174.600 117.762 C 176.584 117.430,176.904 117.198,175.367 117.206 C 174.725 117.209,173.930 117.396,173.600 117.621 M178.833 117.343 C 178.925 117.422,179.720 117.597,180.600 117.732 C 181.690 117.899,182.009 117.855,181.600 117.595 C 181.053 117.246,178.445 117.009,178.833 117.343 M184.580 119.208 C 191.753 122.772,194.383 129.445,192.177 138.485 C 191.864 139.770,191.770 139.669,196.930 143.603 C 201.917 147.405,202.400 147.747,202.400 147.473 C 202.400 147.349,200.735 145.987,198.700 144.446 C 196.665 142.905,194.405 141.139,193.678 140.522 L 192.356 139.400 193.027 136.801 C 194.975 129.250,188.726 117.866,182.713 118.013 C 182.431 118.019,183.271 118.557,184.580 119.208 M168.560 119.931 C 164.865 122.611,162.094 127.329,161.707 131.598 C 161.489 133.996,162.207 138.633,162.857 139.035 C 163.288 139.302,163.300 139.410,162.600 136.800 C 161.582 133.008,162.020 129.470,163.982 125.632 C 164.986 123.668,168.900 119.600,169.785 119.600 C 170.097 119.600,170.464 119.420,170.600 119.200 C 171.058 118.460,170.131 118.792,168.560 119.931 M282.462 121.800 C 282.422 122.460,282.289 123.450,282.167 124.000 C 281.976 124.860,282.008 124.901,282.396 124.293 C 282.644 123.904,282.777 122.914,282.691 122.093 C 282.556 120.804,282.525 120.764,282.462 121.800 M257.610 123.200 C 257.572 126.371,262.664 130.023,267.000 129.933 L 269.400 129.883 266.600 129.614 C 262.433 129.215,259.885 127.542,258.352 124.200 C 257.948 123.320,257.614 122.870,257.610 123.200 M175.061 123.500 C 174.958 123.665,175.859 123.738,177.062 123.662 C 179.552 123.504,181.158 124.020,183.277 125.658 C 185.096 127.065,185.754 127.170,184.162 125.799 C 181.725 123.699,175.858 122.217,175.061 123.500 M274.893 125.207 C 273.940 126.863,271.995 128.526,270.470 128.990 C 269.958 129.146,269.618 129.352,269.714 129.448 C 270.400 130.134,274.425 127.085,275.450 125.103 C 276.362 123.339,275.921 123.421,274.893 125.207 M172.200 124.909 C 170.031 126.505,167.978 129.537,168.019 131.084 C 168.029 131.478,168.382 130.917,168.804 129.837 C 169.683 127.585,171.188 125.854,173.200 124.782 C 173.970 124.371,174.330 124.033,174.000 124.030 C 173.670 124.028,172.860 124.423,172.200 124.909 M251.623 124.716 C 251.610 125.000,251.960 125.938,252.400 126.800 C 252.840 127.662,253.200 128.599,253.200 128.881 C 253.200 129.164,248.205 134.432,242.100 140.588 C 235.995 146.744,231.687 151.155,232.526 150.390 C 235.994 147.231,253.409 129.543,253.514 129.073 C 253.576 128.793,253.181 127.582,252.637 126.382 C 252.092 125.182,251.636 124.432,251.623 124.716 M185.831 128.400 C 186.664 130.138,186.800 130.294,186.800 129.511 C 186.800 129.169,186.431 128.464,185.980 127.944 L 185.160 127.000 185.831 128.400 M279.870 128.916 C 278.677 130.953,275.973 133.289,273.519 134.402 C 272.574 134.831,272.034 135.186,272.320 135.191 C 274.476 135.228,282.124 128.391,281.087 127.354 C 280.983 127.249,280.435 127.952,279.870 128.916 M186.950 133.000 C 186.950 134.593,187.073 135.401,187.247 134.956 C 187.410 134.540,187.544 133.660,187.544 133.000 C 187.544 132.340,187.410 131.460,187.247 131.044 C 187.073 130.599,186.950 131.407,186.950 133.000 M246.697 144.703 C 240.594 150.809,235.600 156.036,235.600 156.319 C 235.600 156.601,235.946 157.509,236.368 158.338 C 239.848 165.159,236.507 175.391,229.752 178.596 C 228.973 178.966,228.437 179.370,228.561 179.495 C 228.686 179.619,229.758 179.078,230.943 178.291 C 237.644 173.841,240.150 165.239,236.778 158.260 C 236.350 157.375,236.000 156.457,236.000 156.222 C 236.000 155.682,257.665 133.999,258.203 134.002 C 258.421 134.003,259.680 134.449,261.000 134.992 C 262.320 135.536,263.940 135.966,264.600 135.947 C 265.600 135.918,265.518 135.857,264.108 135.578 C 263.177 135.395,261.579 134.874,260.557 134.422 C 259.535 133.970,258.495 133.600,258.246 133.600 C 257.998 133.600,252.801 138.596,246.697 144.703 M168.195 135.519 C 168.585 138.189,172.677 142.425,174.835 142.391 C 175.146 142.386,174.680 142.036,173.800 141.614 C 171.134 140.333,169.258 138.225,168.435 135.585 L 168.003 134.200 168.195 135.519 M269.600 135.600 C 268.216 135.891,268.214 135.895,269.400 135.941 C 270.060 135.967,270.870 135.813,271.200 135.600 C 271.866 135.170,271.645 135.170,269.600 135.600 M186.400 136.473 C 186.400 137.727,184.053 140.302,181.958 141.346 C 180.795 141.926,180.065 142.400,180.337 142.400 C 182.647 142.400,187.791 137.258,186.637 136.103 C 186.506 135.973,186.400 136.140,186.400 136.473 M163.200 139.900 C 163.200 140.149,163.380 140.464,163.600 140.600 C 163.820 140.736,164.000 141.153,164.000 141.526 C 164.000 142.308,142.457 164.000,141.681 164.000 C 141.399 164.000,140.480 163.649,139.639 163.220 C 134.200 160.445,126.977 161.640,122.120 166.117 C 120.272 167.820,117.992 171.321,118.028 172.400 C 118.039 172.730,118.486 172.068,119.022 170.929 C 122.618 163.282,132.413 159.955,140.006 163.803 L 141.862 164.743 153.131 153.469 C 159.329 147.268,164.394 141.926,164.387 141.597 C 164.372 140.902,163.200 139.225,163.200 139.900 M176.500 142.800 C 177.105 142.982,178.095 142.982,178.700 142.800 C 179.590 142.532,179.381 142.469,177.600 142.469 C 175.819 142.469,175.610 142.532,176.500 142.800 M188.212 144.780 C 188.070 145.011,188.188 145.201,188.476 145.202 C 188.764 145.203,189.945 145.920,191.100 146.796 C 192.255 147.671,193.194 148.255,193.187 148.094 C 193.181 147.932,192.686 147.451,192.087 147.025 C 191.489 146.599,190.431 145.825,189.736 145.305 C 188.940 144.710,188.376 144.516,188.212 144.780 M184.600 146.837 C 183.060 147.683,181.946 148.380,182.125 148.387 C 182.693 148.409,186.798 146.285,187.257 145.731 C 187.816 145.057,187.908 145.019,184.600 146.837 M157.373 157.417 C 151.118 163.672,146.000 168.878,146.000 168.985 C 146.000 169.093,146.379 169.770,146.843 170.490 C 147.306 171.211,147.556 171.440,147.397 171.000 C 147.239 170.560,147.014 169.867,146.897 169.460 C 146.668 168.656,168.095 146.800,169.113 146.800 C 169.398 146.800,170.358 147.171,171.246 147.623 C 172.133 148.076,173.030 148.390,173.237 148.321 C 173.445 148.252,172.519 147.711,171.180 147.119 L 168.746 146.044 157.373 157.417 M202.800 147.750 C 202.800 147.980,207.334 151.632,209.496 153.143 L 210.793 154.049 213.071 152.418 C 216.892 149.682,222.409 148.798,227.018 150.185 C 228.087 150.507,229.042 150.692,229.139 150.595 C 229.235 150.498,229.064 150.340,228.757 150.245 C 228.451 150.149,227.588 149.875,226.840 149.635 C 222.717 148.315,216.943 149.336,212.820 152.112 C 211.573 152.952,210.469 153.438,210.225 153.254 C 209.991 153.079,208.225 151.720,206.300 150.234 C 204.375 148.749,202.800 147.631,202.800 147.750 M175.700 148.915 C 176.871 149.144,178.329 149.144,179.500 148.915 C 181.219 148.578,181.037 148.543,177.600 148.543 C 174.163 148.543,173.981 148.578,175.700 148.915 M193.600 148.507 C 193.600 148.619,194.995 149.768,196.700 151.060 C 205.531 157.750,207.272 159.285,207.018 160.156 C 206.514 161.882,206.325 166.646,206.707 168.000 C 207.039 169.178,207.093 168.861,207.051 166.000 C 207.023 164.130,207.136 161.843,207.302 160.917 C 207.666 158.891,207.895 159.141,200.479 153.469 C 194.223 148.685,193.600 148.236,193.600 148.507 M218.095 156.045 C 213.944 158.099,211.303 163.672,212.745 167.333 C 212.904 167.736,213.030 166.746,213.026 165.133 C 213.012 159.383,216.677 155.600,222.262 155.600 C 230.394 155.600,234.667 165.165,229.288 171.328 L 227.829 173.000 229.165 171.800 C 237.064 164.705,227.654 151.313,218.095 156.045 M128.904 168.725 C 124.712 170.961,121.705 177.427,123.525 180.292 C 123.696 180.562,123.765 179.655,123.677 178.275 C 123.399 173.910,125.889 170.206,130.073 168.761 C 131.459 168.282,131.852 168.027,131.200 168.030 C 130.650 168.032,129.617 168.345,128.904 168.725 M135.927 168.761 C 138.378 169.607,140.288 171.296,141.524 173.710 C 141.999 174.639,142.391 175.180,142.394 174.912 C 142.422 172.482,137.405 167.975,134.716 168.013 C 134.178 168.021,134.677 168.329,135.927 168.761 M249.144 168.796 L 248.200 169.592 249.475 168.979 C 250.569 168.453,253.120 168.383,267.537 168.483 C 276.770 168.548,284.117 168.468,283.863 168.306 C 282.615 167.513,250.122 167.972,249.144 168.796 M213.201 168.641 C 213.195 170.494,217.951 174.420,220.145 174.373 C 221.239 174.349,221.154 174.280,219.477 173.829 C 217.473 173.290,215.288 171.539,213.953 169.400 C 213.540 168.740,213.202 168.398,213.201 168.641 M284.800 169.087 C 284.800 169.343,284.980 169.664,285.200 169.800 C 285.464 169.963,285.602 190.244,285.606 229.324 C 285.609 261.926,285.751 288.819,285.921 289.086 C 286.124 289.406,287.724 289.610,290.615 289.686 L 295.000 289.800 295.118 292.500 L 295.237 295.200 200.000 295.200 L 104.763 295.200 104.882 292.500 L 105.000 289.800 109.368 289.600 C 112.793 289.443,113.771 289.270,113.898 288.800 C 114.015 288.371,113.963 288.338,113.716 288.686 C 113.490 289.003,111.850 289.211,108.985 289.286 L 104.600 289.400 104.600 292.400 L 104.600 295.400 200.000 295.400 L 295.400 295.400 295.524 293.221 C 295.754 289.164,295.846 289.243,290.696 289.113 L 286.200 289.000 286.099 229.666 C 286.010 177.741,285.923 170.225,285.399 169.477 C 285.069 169.007,284.800 168.831,284.800 169.087 M207.210 169.920 C 207.178 171.557,210.640 176.339,212.890 177.764 L 214.600 178.847 213.400 177.805 C 210.537 175.318,209.484 174.056,208.387 171.800 C 207.746 170.480,207.216 169.634,207.210 169.920 M247.867 170.267 C 247.720 170.413,247.600 197.233,247.600 229.867 L 247.600 289.200 244.606 289.200 L 241.612 289.200 241.506 251.965 L 241.400 214.731 240.278 213.765 L 239.155 212.800 222.222 212.800 C 206.146 212.800,205.241 212.839,204.344 213.565 L 203.400 214.329 203.200 251.665 L 203.000 289.000 200.000 289.000 L 197.000 289.000 196.800 235.865 L 196.600 182.731 195.478 181.765 L 194.355 180.800 177.478 180.892 L 160.600 180.983 177.736 181.192 L 194.871 181.400 195.636 182.344 C 196.379 183.263,196.400 184.701,196.400 235.812 C 196.400 264.699,196.509 288.619,196.643 288.967 C 196.835 289.469,197.529 289.600,200.000 289.600 C 202.471 289.600,203.165 289.469,203.357 288.967 C 203.491 288.619,203.600 271.796,203.600 251.583 L 203.600 214.831 204.475 214.016 C 205.798 212.783,238.538 212.736,240.056 213.965 L 241.000 214.729 241.200 252.065 L 241.400 289.400 244.600 289.400 L 247.800 289.400 248.000 229.800 C 248.110 197.020,248.185 170.155,248.167 170.100 C 248.148 170.045,248.013 170.120,247.867 170.267 M226.600 173.290 C 226.160 173.546,225.170 173.880,224.400 174.032 C 223.135 174.281,223.108 174.312,224.120 174.354 C 225.148 174.396,227.600 173.435,227.600 172.990 C 227.600 172.731,227.519 172.755,226.600 173.290 M117.449 173.815 C 117.312 174.173,117.218 174.946,117.240 175.533 C 117.273 176.391,117.352 176.295,117.646 175.040 C 118.022 173.439,117.895 172.653,117.449 173.815 M254.017 174.768 C 253.515 175.706,253.433 288.317,253.933 289.106 C 254.183 289.500,257.075 289.588,267.027 289.506 L 279.800 289.400 279.800 231.800 L 279.800 174.200 267.117 174.094 C 254.899 173.993,254.419 174.017,254.017 174.768 M148.487 177.800 C 148.493 181.190,148.514 181.278,148.842 179.308 C 149.043 178.105,149.040 176.577,148.836 175.708 C 148.544 174.471,148.482 174.846,148.487 177.800 M279.400 231.800 L 279.400 289.000 266.800 289.000 L 254.200 289.000 254.099 232.243 C 254.024 190.280,254.116 175.342,254.452 174.937 C 254.823 174.490,257.172 174.408,267.154 174.494 L 279.400 174.600 279.400 231.800 M142.514 177.800 C 142.517 178.900,142.595 179.303,142.687 178.695 C 142.779 178.086,142.777 177.186,142.682 176.695 C 142.587 176.203,142.511 176.700,142.514 177.800 M216.200 179.622 C 217.080 180.038,218.160 180.371,218.600 180.361 C 219.040 180.352,218.410 180.002,217.200 179.583 C 214.452 178.633,214.136 178.645,216.200 179.622 M117.228 180.033 C 117.244 180.565,117.419 181.360,117.619 181.800 C 117.871 182.358,117.907 182.115,117.738 181.000 C 117.455 179.143,117.187 178.636,117.228 180.033 M226.200 180.000 L 225.400 180.344 226.200 180.366 C 226.640 180.378,227.270 180.213,227.600 180.000 C 228.395 179.486,227.396 179.486,226.200 180.000 M141.879 180.827 C 141.435 182.597,139.357 185.037,137.545 185.914 C 136.585 186.380,136.088 186.769,136.440 186.780 C 138.207 186.835,142.792 181.775,142.303 180.308 C 142.211 180.032,142.020 180.266,141.879 180.827 M220.900 180.691 C 221.725 180.778,223.075 180.778,223.900 180.691 C 224.725 180.605,224.050 180.534,222.400 180.534 C 220.750 180.534,220.075 180.605,220.900 180.691 M124.001 181.320 C 123.998 181.988,125.156 183.834,126.059 184.601 C 127.000 185.400,127.000 185.400,126.344 184.600 C 125.983 184.160,125.308 183.170,124.845 182.400 C 124.382 181.630,124.002 181.144,124.001 181.320 M159.229 182.254 L 158.400 183.308 158.400 236.254 L 158.400 289.200 155.400 289.200 L 152.400 289.200 152.400 259.026 C 152.400 239.117,152.259 228.480,151.984 227.759 C 151.157 225.584,151.535 225.626,132.970 225.613 L 115.739 225.600 114.837 226.561 C 114.253 227.182,113.997 227.853,114.113 228.461 C 114.284 229.362,114.293 229.358,114.346 228.362 C 114.471 225.967,114.211 226.000,133.070 226.000 C 150.053 226.000,150.286 226.011,151.038 226.842 C 151.770 227.650,151.808 228.910,152.000 258.542 L 152.200 289.400 155.400 289.400 L 158.600 289.400 158.800 236.142 C 158.994 184.481,159.023 182.859,159.762 182.042 C 160.181 181.579,160.419 181.200,160.291 181.200 C 160.163 181.200,159.685 181.674,159.229 182.254 M147.221 183.834 C 146.714 185.057,145.856 186.585,145.314 187.229 C 144.772 187.873,144.480 188.399,144.664 188.397 C 145.380 188.391,148.765 182.231,148.305 181.772 C 148.216 181.683,147.728 182.611,147.221 183.834 M118.007 182.913 C 117.946 185.576,125.273 192.815,128.000 192.786 C 128.330 192.782,127.520 192.254,126.200 191.612 C 123.348 190.225,120.888 187.822,119.225 184.800 C 118.559 183.590,118.011 182.741,118.007 182.913 M127.944 186.004 C 128.464 186.442,129.169 186.800,129.511 186.800 C 130.285 186.800,130.152 186.688,128.400 185.866 L 127.000 185.208 127.944 186.004 M131.557 187.288 C 132.365 187.505,133.499 187.507,134.357 187.293 C 135.627 186.977,135.465 186.933,133.000 186.929 C 130.595 186.924,130.391 186.975,131.557 187.288 M164.880 187.280 C 164.371 187.789,164.138 287.652,164.643 288.967 C 165.012 289.929,190.188 289.929,190.557 288.967 C 191.062 287.652,190.829 187.789,190.320 187.280 C 189.634 186.594,165.566 186.594,164.880 187.280 M189.902 187.531 C 190.300 187.784,190.382 198.228,190.302 238.425 L 190.200 289.000 177.600 289.000 L 165.000 289.000 164.898 238.425 C 164.818 198.228,164.900 187.784,165.298 187.531 C 165.574 187.356,171.110 187.212,177.600 187.212 C 184.090 187.212,189.626 187.356,189.902 187.531 M142.989 189.613 C 142.584 190.059,141.161 190.968,139.827 191.633 C 138.492 192.297,137.850 192.718,138.400 192.569 C 140.464 192.009,145.360 188.807,144.162 188.802 C 143.921 188.801,143.393 189.166,142.989 189.613 M129.679 193.260 C 130.877 193.599,135.133 193.595,136.345 193.255 C 136.865 193.109,135.371 192.992,133.024 192.995 C 130.678 192.998,129.172 193.117,129.679 193.260 M209.386 219.294 C 209.280 219.572,209.240 235.460,209.297 254.600 L 209.400 289.400 222.200 289.400 L 235.000 289.400 235.000 254.200 L 235.000 219.000 222.290 218.894 C 212.336 218.812,209.537 218.898,209.386 219.294 M234.600 254.200 L 234.600 289.000 222.200 289.000 L 209.800 289.000 209.697 254.600 C 209.640 235.680,209.680 219.972,209.786 219.694 C 209.937 219.298,212.657 219.211,222.290 219.294 L 234.600 219.400 234.600 254.200 M120.186 232.094 C 120.080 232.372,120.040 245.380,120.096 261.000 L 120.200 289.400 133.000 289.400 L 145.800 289.400 145.800 260.600 L 145.800 231.800 133.090 231.694 C 123.136 231.612,120.337 231.698,120.186 232.094 M145.503 260.500 L 145.400 289.000 132.900 289.106 L 120.400 289.211 120.400 260.606 L 120.400 232.000 133.003 232.000 L 145.605 232.000 145.503 260.500 " stroke="none" fill="#747474" fill-rule="evenodd"></path><path id="path4" d="M190.800 58.026 C 181.143 58.751,177.543 59.231,169.600 60.851 C 165.413 61.706,162.962 62.308,158.400 63.603 C 156.015 64.280,149.609 66.355,148.600 66.778 C 148.160 66.963,145.640 67.968,143.000 69.012 C 137.237 71.291,131.007 74.255,126.471 76.874 C 124.637 77.934,123.056 78.800,122.957 78.800 C 122.557 78.800,112.845 85.477,108.858 88.493 C 99.211 95.789,89.969 104.670,82.924 113.416 C 82.223 114.287,80.855 115.990,79.885 117.200 C 74.472 123.951,61.600 145.728,61.600 148.134 C 61.600 148.269,61.060 149.559,60.400 151.000 C 59.740 152.441,59.200 153.726,59.200 153.855 C 59.200 153.984,58.569 155.775,57.797 157.836 C 54.688 166.135,51.507 178.924,50.394 187.600 C 50.154 189.470,49.787 192.205,49.579 193.677 C 49.088 197.146,49.087 220.840,49.577 224.323 C 49.784 225.795,50.155 228.530,50.401 230.400 C 51.703 240.288,54.749 252.209,58.475 262.000 C 59.354 264.310,60.308 266.740,60.594 267.400 C 62.370 271.490,63.060 272.993,64.721 276.400 C 68.196 283.525,77.732 298.756,79.999 300.800 C 80.121 300.910,80.845 301.810,81.608 302.800 C 82.372 303.790,83.468 305.140,84.046 305.800 C 84.623 306.460,85.955 307.990,87.004 309.200 C 95.671 319.189,110.173 331.578,119.200 336.705 C 119.970 337.143,121.774 338.220,123.210 339.100 C 129.081 342.698,144.371 350.000,146.034 350.000 C 146.241 350.000,146.723 350.175,147.105 350.389 C 147.815 350.786,155.957 353.478,159.200 354.388 C 160.190 354.666,161.450 355.037,162.000 355.213 C 162.550 355.389,163.630 355.656,164.400 355.807 C 165.170 355.959,166.430 356.222,167.200 356.393 C 186.754 360.733,209.968 361.084,228.400 357.318 C 234.120 356.150,235.793 355.750,242.200 354.021 C 244.460 353.411,252.199 350.785,252.895 350.392 C 253.277 350.177,253.759 350.000,253.966 350.000 C 255.861 350.000,270.154 343.066,278.400 338.146 C 292.441 329.769,302.372 321.221,315.982 305.797 C 319.242 302.101,330.400 286.309,330.400 285.389 C 330.400 285.277,331.079 284.064,331.908 282.693 C 332.737 281.322,334.252 278.490,335.274 276.400 C 336.940 272.993,337.624 271.502,339.406 267.400 C 343.944 256.948,348.042 242.068,349.594 230.400 C 349.843 228.530,350.216 225.795,350.423 224.323 C 350.912 220.847,350.912 197.153,350.423 193.677 C 350.216 192.205,349.843 189.470,349.594 187.600 C 348.381 178.486,345.321 166.159,342.203 157.836 C 341.431 155.775,340.800 153.984,340.800 153.855 C 340.800 153.726,340.260 152.441,339.600 151.000 C 338.940 149.559,338.400 148.269,338.400 148.134 C 338.400 147.643,333.375 137.703,331.255 134.000 C 327.617 127.646,320.828 117.782,316.945 113.208 C 316.474 112.653,315.324 111.300,314.390 110.200 C 298.926 92.000,275.567 75.642,253.600 67.630 C 252.830 67.349,251.840 66.965,251.400 66.776 C 250.291 66.301,244.499 64.383,242.800 63.929 C 242.030 63.723,240.770 63.373,240.000 63.151 C 235.203 61.766,225.890 59.820,221.000 59.181 C 210.826 57.850,199.120 57.402,190.800 58.026 M211.200 58.837 C 214.170 59.056,217.860 59.324,219.400 59.432 C 220.940 59.541,222.560 59.792,223.000 59.992 C 223.440 60.191,224.565 60.455,225.500 60.577 C 229.732 61.132,230.624 61.305,230.980 61.641 C 231.189 61.838,232.033 62.000,232.856 62.000 C 233.679 62.000,234.464 62.180,234.600 62.400 C 234.736 62.620,235.368 62.800,236.005 62.800 C 236.641 62.800,237.576 62.961,238.081 63.158 C 238.587 63.355,239.810 63.743,240.800 64.020 C 246.218 65.535,256.677 69.301,261.824 71.589 C 264.802 72.914,271.373 76.135,271.600 76.382 C 271.939 76.751,274.123 77.989,275.700 78.706 C 276.525 79.082,277.200 79.526,277.200 79.694 C 277.200 79.862,277.398 80.000,277.640 80.000 C 278.043 80.000,289.137 87.411,289.600 87.989 C 289.710 88.126,290.430 88.674,291.200 89.206 C 291.970 89.738,292.796 90.360,293.037 90.587 C 293.277 90.814,294.060 91.446,294.776 91.990 C 299.115 95.287,309.050 104.778,312.798 109.204 C 314.006 110.632,315.090 111.890,315.206 112.000 C 315.322 112.110,316.546 113.640,317.927 115.400 C 319.307 117.160,320.673 118.887,320.961 119.238 C 321.250 119.589,322.264 121.029,323.215 122.438 C 324.166 123.847,325.092 125.060,325.272 125.133 C 325.453 125.207,325.600 125.440,325.600 125.651 C 325.600 125.863,326.500 127.370,327.600 129.000 C 328.700 130.630,329.600 132.046,329.600 132.146 C 329.600 132.246,330.292 133.559,331.139 135.064 C 331.985 136.569,333.492 139.420,334.487 141.400 C 336.186 144.779,336.737 145.955,338.844 150.700 C 339.308 151.745,339.848 152.913,340.044 153.295 C 340.240 153.677,340.400 154.352,340.400 154.795 C 340.400 155.238,340.580 155.600,340.800 155.600 C 341.020 155.600,341.200 155.962,341.200 156.405 C 341.200 156.848,341.376 157.523,341.591 157.905 C 341.995 158.623,343.853 164.082,344.414 166.200 C 346.273 173.212,346.924 175.994,347.764 180.520 C 348.688 185.501,349.038 187.920,349.998 195.964 C 350.937 203.828,350.377 220.760,348.823 231.498 C 348.204 235.775,346.195 245.494,345.227 248.900 C 344.992 249.725,344.642 250.985,344.448 251.700 C 343.829 253.989,341.995 259.377,341.591 260.095 C 341.376 260.477,341.200 261.152,341.200 261.595 C 341.200 262.038,341.020 262.400,340.800 262.400 C 340.580 262.400,340.400 262.762,340.400 263.205 C 340.400 263.648,340.240 264.323,340.044 264.705 C 339.848 265.087,339.336 266.210,338.906 267.200 C 335.295 275.512,327.232 290.269,324.700 293.199 C 324.315 293.645,324.000 294.153,324.000 294.329 C 324.000 294.505,323.680 294.998,323.289 295.425 C 322.898 295.851,322.142 296.830,321.608 297.600 C 320.643 298.994,314.906 306.202,313.918 307.263 C 313.633 307.569,312.233 309.165,310.806 310.810 C 309.379 312.454,307.669 314.316,307.006 314.946 C 299.743 321.851,295.607 325.573,293.912 326.731 C 293.410 327.073,292.910 327.463,292.800 327.596 C 292.690 327.729,291.970 328.271,291.200 328.800 C 290.430 329.329,289.710 329.872,289.600 330.006 C 289.250 330.434,281.697 335.600,281.421 335.600 C 281.275 335.600,280.096 336.320,278.800 337.200 C 277.504 338.080,276.269 338.800,276.055 338.800 C 275.842 338.800,275.607 338.935,275.533 339.100 C 274.953 340.406,257.633 348.312,249.800 350.846 C 248.920 351.130,248.029 351.507,247.820 351.682 C 247.611 351.857,247.037 352.000,246.544 352.000 C 246.051 352.000,245.536 352.180,245.400 352.400 C 245.264 352.620,244.634 352.800,244.000 352.800 C 243.366 352.800,242.736 352.980,242.600 353.200 C 242.464 353.420,241.834 353.600,241.200 353.600 C 240.566 353.600,239.936 353.780,239.800 354.000 C 239.664 354.220,239.034 354.400,238.400 354.400 C 237.766 354.400,237.136 354.580,237.000 354.800 C 236.864 355.020,236.144 355.200,235.400 355.200 C 234.656 355.200,233.936 355.380,233.800 355.600 C 233.664 355.820,232.879 356.000,232.056 356.000 C 231.233 356.000,230.389 356.163,230.180 356.361 C 229.971 356.560,228.990 356.821,228.000 356.942 C 227.010 357.063,225.120 357.361,223.800 357.604 C 218.423 358.594,212.749 358.904,200.000 358.904 C 187.251 358.904,181.577 358.594,176.200 357.604 C 174.880 357.361,172.990 357.063,172.000 356.942 C 171.010 356.821,170.029 356.560,169.820 356.361 C 169.611 356.163,168.767 356.000,167.944 356.000 C 167.121 356.000,166.336 355.820,166.200 355.600 C 166.064 355.380,165.344 355.200,164.600 355.200 C 163.856 355.200,163.136 355.020,163.000 354.800 C 162.864 354.580,162.234 354.400,161.600 354.400 C 160.966 354.400,160.336 354.220,160.200 354.000 C 160.064 353.780,159.434 353.600,158.800 353.600 C 158.166 353.600,157.536 353.420,157.400 353.200 C 157.264 352.980,156.634 352.800,156.000 352.800 C 155.366 352.800,154.736 352.620,154.600 352.400 C 154.464 352.180,154.001 352.000,153.571 352.000 C 153.141 352.000,152.477 351.826,152.095 351.613 C 151.713 351.400,150.590 350.966,149.600 350.650 C 147.415 349.951,142.461 348.020,138.400 346.283 C 134.825 344.754,124.966 339.766,124.400 339.200 C 124.290 339.090,123.750 338.742,123.200 338.427 C 120.680 336.984,115.614 333.784,113.800 332.490 C 110.928 330.440,107.433 327.840,107.200 327.578 C 107.090 327.455,106.590 327.073,106.088 326.731 C 104.393 325.573,100.257 321.851,92.994 314.946 C 92.331 314.316,90.621 312.456,89.194 310.813 C 87.767 309.171,86.269 307.461,85.865 307.013 C 84.202 305.171,79.700 299.496,78.399 297.600 C 77.871 296.830,77.325 296.110,77.186 296.000 C 74.729 294.058,63.561 273.638,59.903 264.400 C 59.685 263.850,59.348 263.087,59.153 262.705 C 58.959 262.323,58.800 261.736,58.800 261.400 C 58.800 261.064,58.624 260.477,58.409 260.095 C 58.005 259.377,56.171 253.989,55.552 251.700 C 55.358 250.985,55.008 249.725,54.773 248.900 C 53.887 245.783,52.512 239.511,51.815 235.400 C 51.280 232.245,50.789 228.633,50.002 222.036 C 49.482 217.687,49.482 200.313,50.002 195.964 C 50.849 188.869,51.282 185.685,51.848 182.400 C 52.558 178.277,53.930 171.771,54.380 170.400 C 54.560 169.850,54.934 168.590,55.210 167.600 C 56.098 164.425,58.016 158.622,58.414 157.905 C 58.626 157.523,58.800 156.848,58.800 156.405 C 58.800 155.962,58.980 155.600,59.200 155.600 C 59.420 155.600,59.600 155.238,59.600 154.795 C 59.600 154.352,59.760 153.677,59.956 153.295 C 60.152 152.913,60.692 151.745,61.156 150.700 C 63.263 145.955,63.814 144.779,65.513 141.400 C 66.508 139.420,68.015 136.569,68.861 135.064 C 69.708 133.559,70.400 132.246,70.400 132.146 C 70.400 132.046,71.300 130.630,72.400 129.000 C 73.500 127.370,74.400 125.848,74.400 125.618 C 74.400 125.388,74.550 125.200,74.732 125.200 C 74.915 125.200,75.320 124.705,75.632 124.100 C 75.944 123.495,76.298 122.910,76.419 122.800 C 76.540 122.690,77.077 121.970,77.614 121.200 C 78.150 120.430,78.808 119.530,79.076 119.200 C 79.344 118.870,80.693 117.160,82.073 115.400 C 83.454 113.640,84.678 112.110,84.794 112.000 C 84.910 111.890,85.994 110.632,87.202 109.204 C 90.950 104.778,100.885 95.287,105.224 91.990 C 105.940 91.446,106.723 90.814,106.963 90.587 C 107.204 90.360,108.030 89.738,108.800 89.206 C 109.570 88.674,110.290 88.126,110.400 87.989 C 110.863 87.411,121.957 80.000,122.360 80.000 C 122.602 80.000,122.800 79.862,122.800 79.694 C 122.800 79.526,123.475 79.082,124.300 78.706 C 125.877 77.989,128.061 76.751,128.400 76.382 C 128.798 75.949,137.124 71.999,141.400 70.215 C 145.726 68.410,155.021 65.173,159.200 64.015 C 160.190 63.741,161.413 63.355,161.919 63.158 C 162.424 62.961,163.359 62.800,163.995 62.800 C 164.632 62.800,165.264 62.620,165.400 62.400 C 165.536 62.180,166.321 62.000,167.144 62.000 C 167.967 62.000,168.811 61.838,169.020 61.641 C 169.376 61.305,170.268 61.132,174.500 60.577 C 175.435 60.455,176.560 60.191,177.000 59.992 C 177.815 59.622,178.608 59.551,189.746 58.845 C 193.236 58.623,196.206 58.322,196.346 58.176 C 196.605 57.904,201.579 58.125,211.200 58.837 M184.600 62.803 C 183.720 62.978,180.840 63.422,178.200 63.789 C 175.560 64.157,171.870 64.814,170.000 65.250 C 168.130 65.686,165.700 66.236,164.600 66.471 C 163.500 66.707,162.150 67.036,161.600 67.203 C 161.050 67.370,159.790 67.739,158.800 68.023 C 157.810 68.307,156.829 68.688,156.620 68.870 C 156.411 69.051,155.837 69.200,155.344 69.200 C 154.851 69.200,154.336 69.380,154.200 69.600 C 154.064 69.820,153.524 70.000,153.000 70.000 C 152.476 70.000,151.936 70.180,151.800 70.400 C 151.664 70.620,151.124 70.800,150.600 70.800 C 150.076 70.800,149.536 70.980,149.400 71.200 C 149.264 71.420,148.801 71.600,148.371 71.600 C 147.941 71.600,147.277 71.759,146.895 71.953 C 146.513 72.148,145.750 72.485,145.200 72.703 C 143.790 73.261,141.158 74.455,137.139 76.360 C 135.236 77.262,133.601 78.000,133.507 78.000 C 133.231 78.000,123.945 83.216,122.193 84.355 C 121.310 84.930,120.299 85.580,119.947 85.800 C 119.595 86.020,117.912 87.164,116.208 88.343 C 113.308 90.348,112.163 91.209,111.055 92.213 C 110.805 92.440,109.970 93.062,109.200 93.594 C 108.430 94.126,107.710 94.665,107.600 94.793 C 107.490 94.920,105.780 96.392,103.800 98.065 C 100.583 100.783,90.669 110.713,88.600 113.290 C 88.160 113.838,87.219 114.987,86.510 115.843 C 83.091 119.969,80.688 123.111,80.117 124.200 C 79.771 124.860,79.367 125.490,79.218 125.600 C 78.696 125.985,76.400 129.548,76.400 129.972 C 76.400 130.207,76.220 130.400,76.000 130.400 C 75.780 130.400,75.600 130.593,75.600 130.828 C 75.600 131.063,75.060 132.041,74.400 133.000 C 73.740 133.959,73.200 134.937,73.200 135.172 C 73.200 135.407,73.065 135.601,72.900 135.603 C 72.735 135.605,72.404 136.010,72.164 136.503 C 71.924 136.996,70.654 139.470,69.342 142.000 C 66.609 147.268,63.788 153.681,62.921 156.600 C 62.594 157.700,62.163 158.913,61.963 159.295 C 61.763 159.677,61.600 160.264,61.600 160.600 C 61.600 160.936,61.392 161.613,61.138 162.105 C 60.166 163.984,60.000 164.407,60.000 165.000 C 60.000 165.336,59.842 165.923,59.649 166.305 C 59.020 167.551,58.400 169.834,58.400 170.905 C 58.400 171.481,58.220 172.064,58.000 172.200 C 57.780 172.336,57.600 173.056,57.600 173.800 C 57.600 174.544,57.420 175.264,57.200 175.400 C 56.980 175.536,56.800 176.231,56.800 176.944 C 56.800 177.657,56.638 178.411,56.441 178.620 C 56.244 178.829,55.970 179.810,55.834 180.800 C 55.595 182.534,55.190 185.283,54.359 190.800 C 54.036 192.944,53.146 206.134,53.132 209.000 C 53.119 211.387,54.040 224.977,54.364 227.200 C 54.573 228.630,54.949 231.240,55.200 233.000 C 55.451 234.760,55.752 236.876,55.870 237.703 C 55.988 238.529,56.245 239.305,56.442 239.426 C 56.639 239.548,56.800 240.256,56.800 241.000 C 56.800 241.744,56.980 242.464,57.200 242.600 C 57.420 242.736,57.600 243.456,57.600 244.200 C 57.600 244.944,57.780 245.664,58.000 245.800 C 58.220 245.936,58.400 246.519,58.400 247.095 C 58.400 248.166,59.020 250.449,59.649 251.695 C 59.842 252.077,60.000 252.741,60.000 253.171 C 60.000 253.601,60.180 254.064,60.400 254.200 C 60.620 254.336,60.800 254.799,60.800 255.229 C 60.800 255.659,60.959 256.323,61.153 256.705 C 61.747 257.872,62.285 259.306,62.914 261.400 C 64.277 265.934,71.884 281.882,72.900 282.333 C 73.065 282.407,73.200 282.644,73.200 282.861 C 73.200 283.078,73.740 284.041,74.400 285.000 C 75.060 285.959,75.600 286.937,75.600 287.172 C 75.600 287.407,75.780 287.600,76.000 287.600 C 76.220 287.600,76.400 287.793,76.400 288.028 C 76.400 288.431,78.661 291.969,79.195 292.400 C 79.331 292.510,79.840 293.255,80.326 294.055 C 81.152 295.416,83.537 298.536,86.518 302.157 C 87.223 303.013,88.160 304.171,88.600 304.730 C 90.130 306.672,102.613 319.080,104.600 320.633 C 105.700 321.493,106.870 322.476,107.200 322.817 C 107.530 323.159,108.430 323.871,109.200 324.400 C 109.970 324.929,110.690 325.469,110.800 325.600 C 110.910 325.731,111.630 326.271,112.400 326.800 C 113.170 327.329,113.890 327.875,114.000 328.014 C 115.489 329.898,137.258 342.400,139.048 342.400 C 139.352 342.400,139.600 342.580,139.600 342.800 C 139.600 343.020,139.842 343.200,140.139 343.200 C 140.435 343.200,141.200 343.450,141.839 343.756 C 144.006 344.795,145.795 345.532,147.400 346.048 C 148.280 346.332,149.171 346.707,149.380 346.882 C 149.589 347.057,150.163 347.200,150.656 347.200 C 151.149 347.200,151.664 347.380,151.800 347.600 C 151.936 347.820,152.451 348.000,152.944 348.000 C 153.437 348.000,154.011 348.151,154.220 348.336 C 155.253 349.249,164.571 351.692,172.800 353.208 C 180.445 354.616,181.766 354.802,183.824 354.756 L 185.800 354.712 184.200 354.418 C 183.320 354.256,180.800 353.906,178.600 353.640 C 176.400 353.375,173.880 352.997,173.000 352.800 C 171.395 352.442,165.767 351.130,162.400 350.328 C 160.426 349.858,151.478 346.978,150.200 346.401 C 149.760 346.203,148.518 345.754,147.441 345.405 C 146.363 345.055,144.513 344.326,143.329 343.785 C 142.145 343.243,141.106 342.800,141.019 342.800 C 140.511 342.800,131.980 338.544,128.600 336.605 C 126.400 335.342,123.994 333.961,123.253 333.535 C 110.853 326.408,94.311 311.562,84.661 298.900 C 83.529 297.415,82.505 296.110,82.386 296.000 C 80.555 294.314,72.517 281.164,69.182 274.400 C 65.703 267.343,63.992 263.106,61.268 254.800 C 57.670 243.828,56.237 237.130,54.398 222.671 C 53.879 218.595,53.883 198.784,54.404 195.077 C 54.625 193.494,54.996 190.850,55.227 189.200 C 56.056 183.283,56.484 180.923,57.657 175.800 C 58.968 170.076,63.470 156.037,65.261 152.090 C 65.887 150.709,66.400 149.497,66.400 149.395 C 66.400 149.293,67.359 147.273,68.531 144.905 C 84.450 112.752,108.636 89.683,142.291 74.551 C 145.593 73.067,158.958 68.495,162.400 67.674 C 172.468 65.269,174.107 64.921,177.800 64.404 C 179.560 64.157,181.540 63.854,182.200 63.730 C 182.860 63.605,187.000 63.281,191.400 63.008 L 199.400 62.513 192.800 62.499 C 189.170 62.492,185.480 62.629,184.600 62.803 M208.600 63.008 C 213.000 63.281,217.140 63.605,217.800 63.730 C 218.460 63.854,220.440 64.157,222.200 64.404 C 225.893 64.921,227.532 65.269,237.600 67.674 C 241.070 68.502,254.481 73.092,257.709 74.556 C 279.222 84.313,297.361 97.548,310.406 113.007 C 319.590 123.891,325.484 132.816,331.469 144.905 C 332.641 147.273,333.600 149.293,333.600 149.393 C 333.600 149.494,334.053 150.566,334.606 151.776 C 336.514 155.947,340.367 167.817,341.949 174.400 C 343.716 181.753,344.301 185.101,345.602 195.329 C 346.115 199.359,346.118 218.002,345.607 222.410 C 345.196 225.957,344.633 230.011,343.944 234.400 C 341.541 249.697,332.941 272.682,325.013 285.000 C 322.674 288.635,317.876 295.774,317.621 296.000 C 317.497 296.110,316.858 296.920,316.202 297.800 C 306.675 310.569,289.257 326.342,276.731 333.544 C 269.517 337.692,266.820 339.154,263.276 340.839 C 261.008 341.918,259.078 342.800,258.988 342.800 C 258.898 342.800,257.873 343.234,256.712 343.764 C 253.589 345.189,241.011 349.507,237.600 350.325 C 234.692 351.022,228.730 352.415,227.000 352.800 C 226.120 352.997,223.600 353.375,221.400 353.640 C 215.536 354.348,213.477 354.803,217.000 354.612 C 224.646 354.198,243.897 349.999,245.780 348.336 C 245.989 348.151,246.563 348.000,247.056 348.000 C 247.549 348.000,248.064 347.820,248.200 347.600 C 248.336 347.380,248.851 347.200,249.344 347.200 C 249.837 347.200,250.411 347.057,250.620 346.882 C 250.829 346.707,251.720 346.334,252.600 346.054 C 254.063 345.589,256.760 344.446,258.495 343.556 C 258.877 343.360,259.462 343.200,259.795 343.200 C 260.128 343.200,260.400 343.020,260.400 342.800 C 260.400 342.580,260.648 342.400,260.952 342.400 C 262.742 342.400,284.511 329.898,286.000 328.014 C 286.110 327.875,286.830 327.329,287.600 326.800 C 288.370 326.271,289.090 325.731,289.200 325.600 C 289.310 325.469,290.030 324.929,290.800 324.400 C 291.570 323.871,292.470 323.158,292.800 322.816 C 293.130 322.473,294.930 320.908,296.800 319.336 C 300.241 316.445,308.297 308.314,311.600 304.401 C 312.590 303.227,313.585 302.072,313.812 301.834 C 314.038 301.595,315.618 299.510,317.322 297.200 C 319.027 294.890,320.572 292.809,320.756 292.575 C 320.941 292.341,321.320 291.722,321.600 291.200 C 321.880 290.678,322.444 289.890,322.854 289.450 C 323.264 289.009,323.600 288.413,323.600 288.125 C 323.600 287.836,323.780 287.600,324.000 287.600 C 324.220 287.600,324.400 287.407,324.400 287.172 C 324.400 286.937,324.940 285.959,325.600 285.000 C 326.260 284.041,326.800 283.078,326.800 282.861 C 326.800 282.644,326.935 282.407,327.100 282.333 C 327.398 282.201,327.981 281.164,330.769 275.800 C 332.741 272.007,336.118 264.295,336.987 261.600 C 337.377 260.390,337.855 259.087,338.048 258.705 C 338.242 258.323,338.400 257.736,338.400 257.400 C 338.400 257.064,338.580 256.432,338.800 255.995 C 339.020 255.558,339.380 254.842,339.600 254.405 C 339.820 253.968,340.000 253.259,340.000 252.829 C 340.000 252.399,340.180 251.936,340.400 251.800 C 340.620 251.664,340.800 251.034,340.800 250.400 C 340.800 249.766,340.980 249.136,341.200 249.000 C 341.420 248.864,341.600 248.144,341.600 247.400 C 341.600 246.656,341.780 245.936,342.000 245.800 C 342.220 245.664,342.400 244.944,342.400 244.200 C 342.400 243.456,342.580 242.736,342.800 242.600 C 343.020 242.464,343.200 241.769,343.200 241.056 C 343.200 240.343,343.362 239.589,343.559 239.380 C 343.756 239.171,344.032 238.190,344.171 237.200 C 344.788 232.805,345.244 229.599,345.620 227.000 C 345.940 224.789,346.826 212.081,346.861 209.200 C 346.865 208.870,346.677 205.180,346.445 201.000 C 346.056 194.017,345.839 191.921,344.785 185.000 C 344.584 183.680,344.307 181.790,344.169 180.800 C 344.031 179.810,343.756 178.829,343.559 178.620 C 343.362 178.411,343.200 177.657,343.200 176.944 C 343.200 176.231,343.020 175.536,342.800 175.400 C 342.580 175.264,342.400 174.544,342.400 173.800 C 342.400 173.056,342.220 172.336,342.000 172.200 C 341.780 172.064,341.600 171.344,341.600 170.600 C 341.600 169.856,341.420 169.136,341.200 169.000 C 340.980 168.864,340.800 168.234,340.800 167.600 C 340.800 166.966,340.620 166.336,340.400 166.200 C 340.180 166.064,340.000 165.601,340.000 165.171 C 340.000 164.741,339.820 164.032,339.600 163.595 C 339.380 163.158,339.020 162.442,338.800 162.005 C 338.580 161.568,338.400 160.936,338.400 160.600 C 338.400 160.264,338.237 159.677,338.037 159.295 C 337.837 158.913,337.406 157.700,337.079 156.600 C 335.747 152.118,328.121 136.120,327.100 135.667 C 326.935 135.593,326.800 135.356,326.800 135.139 C 326.800 134.922,326.260 133.959,325.600 133.000 C 324.940 132.041,324.400 131.063,324.400 130.828 C 324.400 130.593,324.220 130.400,324.000 130.400 C 323.780 130.400,323.600 130.207,323.600 129.972 C 323.600 129.522,321.406 126.175,320.519 125.271 C 320.234 124.981,320.000 124.591,320.000 124.406 C 320.000 124.093,316.448 119.422,313.488 115.843 C 312.779 114.987,311.840 113.835,311.400 113.285 C 309.368 110.742,299.433 100.792,296.200 98.063 C 294.220 96.391,292.510 94.920,292.400 94.793 C 292.290 94.665,291.570 94.126,290.800 93.594 C 290.030 93.062,289.195 92.440,288.945 92.213 C 286.532 90.024,277.216 83.876,271.432 80.655 C 268.809 79.195,266.587 78.000,266.493 78.000 C 266.399 78.000,264.764 77.262,262.861 76.360 C 258.842 74.455,256.210 73.261,254.800 72.703 C 254.250 72.485,253.487 72.148,253.105 71.953 C 252.723 71.759,252.059 71.600,251.629 71.600 C 251.199 71.600,250.736 71.420,250.600 71.200 C 250.464 70.980,249.924 70.800,249.400 70.800 C 248.876 70.800,248.336 70.620,248.200 70.400 C 248.064 70.180,247.524 70.000,247.000 70.000 C 246.476 70.000,245.936 69.820,245.800 69.600 C 245.664 69.380,245.149 69.200,244.656 69.200 C 244.163 69.200,243.589 69.051,243.380 68.870 C 243.171 68.688,242.190 68.307,241.200 68.023 C 240.210 67.739,238.950 67.370,238.400 67.203 C 237.850 67.036,236.500 66.707,235.400 66.471 C 234.300 66.236,231.870 65.688,230.000 65.253 C 228.130 64.819,224.530 64.173,222.000 63.817 C 219.470 63.462,216.425 62.998,215.233 62.786 C 214.042 62.574,210.262 62.425,206.833 62.457 L 200.600 62.513 208.600 63.008 M265.491 104.289 C 266.201 104.377,267.461 104.379,268.291 104.292 C 269.121 104.205,268.540 104.133,267.000 104.131 C 265.460 104.129,264.781 104.200,265.491 104.289 M259.100 105.829 C 257.605 106.640,257.696 106.978,259.200 106.200 C 259.860 105.859,260.400 105.494,260.400 105.390 C 260.400 105.132,260.357 105.147,259.100 105.829 M278.421 109.000 C 279.630 110.320,280.957 112.167,281.372 113.104 C 281.786 114.041,282.199 114.734,282.289 114.644 C 282.728 114.206,280.228 110.375,278.345 108.600 L 276.224 106.600 278.421 109.000 M253.653 110.442 C 252.342 112.100,252.742 112.179,254.139 110.538 C 254.766 109.802,255.126 109.210,254.939 109.222 C 254.753 109.234,254.174 109.783,253.653 110.442 M259.398 114.802 C 258.998 115.244,258.766 115.699,258.882 115.815 C 258.997 115.930,259.390 115.569,259.755 115.012 C 260.552 113.796,260.393 113.702,259.398 114.802 M250.531 120.200 C 250.533 121.740,250.605 122.321,250.692 121.491 C 250.779 120.661,250.777 119.401,250.689 118.691 C 250.600 117.981,250.529 118.660,250.531 120.200 M275.800 120.200 C 275.800 121.614,275.922 122.462,276.072 122.085 C 276.221 121.708,276.344 120.860,276.344 120.200 C 276.344 119.540,276.221 118.692,276.072 118.315 C 275.922 117.938,275.800 118.786,275.800 120.200 M257.701 120.200 C 257.705 121.080,257.787 121.393,257.883 120.895 C 257.979 120.398,257.975 119.678,257.875 119.295 C 257.775 118.913,257.696 119.320,257.701 120.200 M283.301 120.200 C 283.305 121.080,283.387 121.393,283.483 120.895 C 283.579 120.398,283.575 119.678,283.475 119.295 C 283.375 118.913,283.296 119.320,283.301 120.200 M187.600 120.060 C 187.600 120.175,188.344 121.052,189.253 122.007 C 190.162 122.963,190.717 123.397,190.487 122.972 C 190.051 122.166,187.600 119.694,187.600 120.060 M175.600 124.018 C 175.162 124.315,175.324 124.352,176.200 124.156 C 177.671 123.827,177.990 123.598,176.967 123.606 C 176.545 123.609,175.930 123.795,175.600 124.018 M178.600 124.000 C 179.796 124.514,180.795 124.514,180.000 124.000 C 179.670 123.787,179.040 123.622,178.600 123.634 L 177.800 123.656 178.600 124.000 M163.000 125.600 C 162.659 126.260,162.469 126.800,162.579 126.800 C 162.689 126.800,163.059 126.260,163.400 125.600 C 163.741 124.940,163.931 124.400,163.821 124.400 C 163.711 124.400,163.341 124.940,163.000 125.600 M184.399 127.100 C 184.922 127.815,185.413 128.400,185.489 128.400 C 185.793 128.400,184.801 126.900,184.145 126.367 C 183.713 126.016,183.810 126.296,184.399 127.100 M252.028 127.000 C 252.028 127.220,252.286 127.850,252.600 128.400 C 252.914 128.950,253.172 129.220,253.172 129.000 C 253.172 128.780,252.914 128.150,252.600 127.600 C 252.286 127.050,252.028 126.780,252.028 127.000 M260.800 127.379 C 260.800 127.489,261.340 127.859,262.000 128.200 C 262.660 128.541,263.200 128.731,263.200 128.621 C 263.200 128.511,262.660 128.141,262.000 127.800 C 261.340 127.459,260.800 127.269,260.800 127.379 M279.999 129.700 C 279.410 130.504,279.313 130.784,279.745 130.433 C 280.401 129.900,281.393 128.400,281.089 128.400 C 281.013 128.400,280.522 128.985,279.999 129.700 M264.400 129.182 C 264.730 129.405,265.345 129.591,265.767 129.594 C 266.790 129.602,266.471 129.373,265.000 129.044 C 264.124 128.848,263.962 128.885,264.400 129.182 M268.200 129.200 C 267.093 129.482,267.077 129.509,268.000 129.547 C 268.550 129.569,269.270 129.413,269.600 129.200 C 270.281 128.760,269.929 128.760,268.200 129.200 M193.482 130.821 C 193.608 131.799,193.775 132.675,193.855 132.767 C 194.181 133.142,193.960 130.155,193.621 129.621 C 193.384 129.246,193.335 129.670,193.482 130.821 M161.331 133.000 C 161.333 134.540,161.405 135.121,161.492 134.291 C 161.579 133.461,161.577 132.201,161.489 131.491 C 161.400 130.781,161.329 131.460,161.331 133.000 M250.175 131.700 L 249.000 133.000 250.300 131.825 C 251.015 131.179,251.600 130.594,251.600 130.525 C 251.600 130.216,251.270 130.488,250.175 131.700 M186.524 133.000 C 186.526 134.320,186.601 134.812,186.690 134.093 C 186.779 133.374,186.777 132.294,186.686 131.693 C 186.595 131.092,186.522 131.680,186.524 133.000 M168.520 133.200 C 168.520 134.410,168.595 134.905,168.687 134.300 C 168.778 133.695,168.778 132.705,168.687 132.100 C 168.595 131.495,168.520 131.990,168.520 133.200 M247.570 134.300 L 246.600 135.400 247.800 134.400 C 248.460 133.850,249.075 133.355,249.167 133.300 C 249.258 133.245,249.155 133.200,248.936 133.200 C 248.718 133.200,248.103 133.695,247.570 134.300 M193.654 134.400 C 193.619 134.950,193.496 135.850,193.383 136.400 L 193.177 137.400 193.607 136.415 C 193.843 135.874,193.965 134.974,193.878 134.415 L 193.720 133.400 193.654 134.400 M273.800 134.822 C 272.920 135.238,272.434 135.584,272.720 135.590 C 273.302 135.601,275.600 134.484,275.600 134.190 C 275.600 133.956,275.718 133.914,273.800 134.822 M259.600 134.966 C 260.150 135.260,261.050 135.612,261.600 135.749 C 262.150 135.886,261.880 135.652,261.000 135.229 C 259.190 134.358,258.068 134.148,259.600 134.966 M254.600 137.376 C 251.909 140.246,251.568 140.856,253.909 138.613 C 255.279 137.299,256.400 136.174,256.400 136.113 C 256.400 135.734,255.639 136.268,254.600 137.376 M264.200 136.385 C 265.422 136.711,268.670 136.920,268.367 136.653 C 268.275 136.572,267.030 136.407,265.600 136.285 C 263.962 136.146,263.444 136.182,264.200 136.385 M192.854 138.630 C 192.825 139.087,193.250 139.883,193.800 140.400 C 194.350 140.917,194.800 141.171,194.800 140.966 C 194.800 140.761,194.453 140.376,194.030 140.111 C 193.606 139.847,193.181 139.219,193.084 138.715 C 192.926 137.888,192.904 137.880,192.854 138.630 M176.700 142.282 C 177.195 142.378,178.005 142.378,178.500 142.282 C 178.995 142.187,178.590 142.109,177.600 142.109 C 176.610 142.109,176.205 142.187,176.700 142.282 M158.778 146.700 L 157.400 148.200 158.900 146.822 C 159.725 146.063,160.400 145.388,160.400 145.322 C 160.400 145.016,160.062 145.304,158.778 146.700 M200.540 145.503 C 200.696 145.756,201.391 146.367,202.084 146.860 C 202.777 147.354,203.217 147.550,203.060 147.297 C 202.904 147.044,202.209 146.433,201.516 145.940 C 200.823 145.446,200.383 145.250,200.540 145.503 M189.344 145.909 C 189.660 146.421,192.000 148.153,192.000 147.875 C 192.000 147.776,191.339 147.191,190.532 146.575 C 189.724 145.959,189.189 145.659,189.344 145.909 M234.801 146.998 C 234.286 147.548,233.939 148.064,234.032 148.146 C 234.124 148.228,234.619 147.778,235.130 147.147 C 236.276 145.735,236.074 145.644,234.801 146.998 M169.600 147.400 C 170.150 147.714,170.780 147.972,171.000 147.972 C 171.220 147.972,170.950 147.714,170.400 147.400 C 169.850 147.086,169.220 146.828,169.000 146.828 C 168.780 146.828,169.050 147.086,169.600 147.400 M164.592 150.900 L 161.000 154.600 164.700 151.008 C 168.136 147.672,168.582 147.200,168.292 147.200 C 168.232 147.200,166.567 148.865,164.592 150.900 M203.600 147.740 C 203.600 147.843,204.794 148.866,206.254 150.013 C 207.714 151.160,208.786 151.901,208.637 151.659 C 208.314 151.137,203.600 147.469,203.600 147.740 M192.400 148.133 C 192.400 148.243,193.120 148.903,194.000 149.600 C 194.880 150.297,195.600 150.777,195.600 150.667 C 195.600 150.557,194.880 149.897,194.000 149.200 C 193.120 148.503,192.400 148.023,192.400 148.133 M152.593 152.900 L 148.200 157.400 152.700 153.007 C 155.175 150.591,157.200 148.566,157.200 148.507 C 157.200 148.218,156.674 148.720,152.593 152.900 M221.505 148.683 C 222.002 148.779,222.722 148.775,223.105 148.675 C 223.487 148.575,223.080 148.496,222.200 148.501 C 221.320 148.505,221.007 148.587,221.505 148.683 M176.300 149.489 C 177.015 149.578,178.185 149.578,178.900 149.489 C 179.615 149.401,179.030 149.328,177.600 149.328 C 176.170 149.328,175.585 149.401,176.300 149.489 M216.100 149.612 C 214.761 150.151,215.011 150.424,216.400 149.940 C 217.060 149.710,217.600 149.449,217.600 149.361 C 217.600 149.124,217.113 149.205,216.100 149.612 M231.741 150.037 C 230.948 150.829,230.838 150.840,229.672 150.237 C 228.994 149.887,228.296 149.608,228.120 149.618 C 227.944 149.627,228.499 150.004,229.354 150.455 L 230.908 151.274 231.945 150.237 C 232.515 149.667,232.891 149.200,232.780 149.200 C 232.669 149.200,232.201 149.577,231.741 150.037 M237.300 154.666 C 235.894 156.185,235.749 156.597,236.462 157.038 C 236.760 157.222,236.815 157.147,236.616 156.826 C 236.422 156.513,236.875 155.747,237.835 154.764 C 238.675 153.904,239.191 153.214,238.981 153.231 C 238.772 153.247,238.015 153.893,237.300 154.666 M159.178 156.300 L 157.800 157.800 159.300 156.422 C 160.125 155.663,160.800 154.988,160.800 154.922 C 160.800 154.616,160.462 154.904,159.178 156.300 M201.340 155.103 C 201.496 155.356,202.191 155.967,202.884 156.460 C 203.577 156.954,204.017 157.150,203.860 156.897 C 203.704 156.644,203.009 156.033,202.316 155.540 C 201.623 155.046,201.183 154.850,201.340 155.103 M219.915 155.928 C 219.538 156.078,220.566 156.200,222.200 156.200 C 223.834 156.200,224.862 156.078,224.485 155.928 C 224.108 155.779,223.080 155.656,222.200 155.656 C 221.320 155.656,220.292 155.779,219.915 155.928 M146.378 159.100 L 145.000 160.600 146.500 159.222 C 147.325 158.463,148.000 157.788,148.000 157.722 C 148.000 157.416,147.662 157.704,146.378 159.100 M155.978 159.500 L 154.600 161.000 156.100 159.622 C 156.925 158.863,157.600 158.188,157.600 158.122 C 157.600 157.816,157.262 158.104,155.978 159.500 M206.256 161.284 C 206.121 161.788,206.031 162.830,206.055 163.600 C 206.089 164.669,206.175 164.480,206.418 162.802 C 206.753 160.492,206.672 159.733,206.256 161.284 M132.105 161.487 C 132.714 161.579,133.614 161.577,134.105 161.482 C 134.597 161.387,134.100 161.311,133.000 161.314 C 131.900 161.317,131.497 161.395,132.105 161.487 M150.592 164.900 L 147.000 168.600 150.700 165.008 C 154.136 161.672,154.582 161.200,154.292 161.200 C 154.232 161.200,152.567 162.865,150.592 164.900 M213.331 165.000 C 213.333 166.540,213.405 167.121,213.492 166.291 C 213.579 165.461,213.577 164.201,213.489 163.491 C 213.400 162.781,213.329 163.460,213.331 165.000 M238.514 165.000 C 238.517 166.100,238.595 166.503,238.687 165.895 C 238.779 165.286,238.777 164.386,238.682 163.895 C 238.587 163.403,238.511 163.900,238.514 165.000 M231.301 165.000 C 231.305 165.880,231.387 166.193,231.483 165.695 C 231.579 165.198,231.575 164.478,231.475 164.095 C 231.375 163.713,231.296 164.120,231.301 165.000 M122.167 165.429 L 120.600 166.858 122.300 165.562 C 123.853 164.378,124.232 164.000,123.867 164.000 C 123.793 164.000,123.028 164.643,122.167 165.429 M206.028 167.033 C 206.044 167.675,206.216 168.560,206.410 169.000 C 206.647 169.534,206.686 169.202,206.527 168.000 C 206.246 165.880,205.988 165.380,206.028 167.033 M249.024 168.213 C 248.596 168.536,248.425 168.800,248.644 168.800 C 248.862 168.800,249.218 168.622,249.436 168.404 C 249.681 168.159,256.370 167.967,267.016 167.900 L 284.200 167.791 267.000 167.708 C 252.405 167.638,249.682 167.714,249.024 168.213 M238.046 168.467 C 238.021 168.834,237.896 169.464,237.770 169.867 C 237.552 170.562,237.563 170.563,237.997 169.887 C 238.248 169.496,238.373 168.866,238.273 168.487 C 238.111 167.868,238.088 167.866,238.046 168.467 M132.105 168.687 C 132.714 168.779,133.614 168.777,134.105 168.682 C 134.597 168.587,134.100 168.511,133.000 168.514 C 131.900 168.517,131.497 168.595,132.105 168.687 M147.913 171.819 C 148.284 172.820,148.639 173.482,148.703 173.291 C 148.831 172.906,147.693 170.000,147.414 170.000 C 147.317 170.000,147.542 170.819,147.913 171.819 M214.800 170.264 C 214.800 170.482,215.295 171.097,215.900 171.630 L 217.000 172.600 216.000 171.400 C 215.450 170.740,214.955 170.125,214.900 170.033 C 214.845 169.942,214.800 170.045,214.800 170.264 M138.800 170.567 C 138.800 170.988,140.005 172.128,140.221 171.912 C 140.322 171.811,140.044 171.402,139.602 171.002 C 139.161 170.603,138.800 170.407,138.800 170.567 M247.395 229.800 C 247.395 262.360,247.442 275.621,247.500 259.269 C 247.558 242.916,247.558 216.276,247.500 200.069 C 247.442 183.861,247.395 197.240,247.395 229.800 M286.595 230.000 C 286.595 262.450,286.642 275.725,286.700 259.500 C 286.758 243.275,286.758 216.725,286.700 200.500 C 286.642 184.275,286.595 197.550,286.595 230.000 M219.200 173.600 C 219.530 173.813,220.160 173.978,220.600 173.966 L 221.400 173.944 220.600 173.600 C 219.404 173.086,218.405 173.086,219.200 173.600 M224.200 173.600 C 223.696 173.817,223.622 173.944,224.000 173.944 C 224.330 173.944,224.960 173.789,225.400 173.600 C 225.904 173.383,225.978 173.256,225.600 173.256 C 225.270 173.256,224.640 173.411,224.200 173.600 M235.144 174.700 C 233.993 176.089,233.506 176.800,233.704 176.800 C 233.814 176.800,234.386 176.170,234.973 175.400 C 236.063 173.971,236.195 173.432,235.144 174.700 M123.800 175.600 C 123.650 176.073,123.617 176.550,123.727 176.660 C 123.837 176.770,124.050 176.473,124.200 176.000 C 124.350 175.527,124.383 175.050,124.273 174.940 C 124.163 174.830,123.950 175.127,123.800 175.600 M254.499 231.894 L 254.597 289.000 254.700 232.100 L 254.803 175.200 267.000 175.200 L 279.197 175.200 279.301 232.100 L 279.404 289.000 279.402 232.000 L 279.400 175.000 266.900 174.894 L 254.400 174.789 254.499 231.894 M149.314 177.400 C 149.317 178.500,149.395 178.903,149.487 178.295 C 149.579 177.686,149.577 176.786,149.482 176.295 C 149.387 175.803,149.311 176.300,149.314 177.400 M212.400 177.885 C 212.400 178.234,213.999 179.338,214.200 179.128 C 214.267 179.057,213.889 178.677,213.361 178.281 C 212.832 177.886,212.400 177.708,212.400 177.885 M194.033 180.521 C 194.125 180.588,194.740 180.958,195.400 181.345 L 196.600 182.047 195.656 181.224 C 195.136 180.771,194.521 180.400,194.289 180.400 C 194.057 180.400,193.942 180.454,194.033 180.521 M196.800 235.120 L 197.000 287.800 197.101 235.421 C 197.157 206.613,197.067 182.907,196.901 182.741 C 196.736 182.576,196.690 206.146,196.800 235.120 M117.609 183.116 C 117.596 183.859,119.098 186.691,119.694 187.050 C 120.095 187.290,120.099 187.229,119.715 186.754 C 119.448 186.424,118.867 185.354,118.424 184.377 C 117.980 183.400,117.614 182.832,117.609 183.116 M138.800 184.460 C 138.030 185.135,137.762 185.505,138.204 185.281 C 138.935 184.911,140.747 183.178,140.362 183.216 C 140.273 183.225,139.570 183.785,138.800 184.460 M157.903 236.000 C 157.846 265.040,157.935 288.800,158.100 288.800 C 158.265 288.800,158.400 265.040,158.400 236.000 C 158.400 206.960,158.311 183.200,158.203 183.200 C 158.095 183.200,157.960 206.960,157.903 236.000 M146.892 185.692 C 146.399 186.593,146.055 187.388,146.127 187.460 C 146.199 187.532,146.668 186.861,147.169 185.969 C 147.671 185.077,148.015 184.282,147.935 184.201 C 147.855 184.121,147.385 184.792,146.892 185.692 M131.907 186.690 C 132.626 186.779,133.706 186.777,134.307 186.686 C 134.908 186.595,134.320 186.522,133.000 186.524 C 131.680 186.526,131.188 186.601,131.907 186.690 M121.400 189.200 C 122.259 190.080,123.052 190.800,123.162 190.800 C 123.272 190.800,122.659 190.080,121.800 189.200 C 120.941 188.320,120.148 187.600,120.038 187.600 C 119.928 187.600,120.541 188.320,121.400 189.200 M165.394 238.200 C 165.394 266.140,165.442 277.511,165.500 263.469 C 165.558 249.427,165.558 226.567,165.500 212.669 C 165.442 198.771,165.394 210.260,165.394 238.200 M189.698 238.067 C 189.621 278.152,189.496 288.775,189.100 288.935 C 188.708 289.093,188.711 289.144,189.113 289.168 C 190.006 289.223,190.008 289.120,189.901 237.800 L 189.797 187.400 189.698 238.067 M129.200 193.594 C 129.530 193.811,130.235 193.991,130.767 193.994 C 132.051 194.002,131.725 193.775,130.000 193.458 C 129.015 193.277,128.778 193.318,129.200 193.594 M135.200 193.600 C 133.816 193.891,133.814 193.895,135.000 193.941 C 135.660 193.967,136.470 193.813,136.800 193.600 C 137.466 193.170,137.245 193.170,135.200 193.600 M239.856 213.169 C 240.546 213.590,241.207 214.174,241.324 214.467 C 241.459 214.806,241.548 214.828,241.568 214.529 C 241.605 213.991,239.718 212.399,239.046 212.401 C 238.801 212.402,239.165 212.748,239.856 213.169 M203.228 214.148 C 202.949 214.669,202.808 215.434,202.914 215.847 C 203.059 216.412,203.119 216.345,203.154 215.580 C 203.179 215.019,203.413 214.347,203.673 214.087 C 203.934 213.826,204.054 213.521,203.941 213.407 C 203.827 213.294,203.507 213.627,203.228 214.148 M209.867 219.867 C 209.720 220.013,209.600 235.457,209.600 254.187 C 209.600 288.693,209.621 289.214,210.980 289.194 C 211.211 289.191,211.130 289.017,210.800 288.808 C 210.274 288.476,210.200 284.170,210.200 254.015 C 210.200 235.087,210.185 219.600,210.167 219.600 C 210.148 219.600,210.013 219.720,209.867 219.867 M234.301 241.900 C 234.356 254.165,234.449 269.780,234.506 276.600 C 234.564 283.420,234.654 273.385,234.706 254.300 C 234.758 235.215,234.665 219.600,234.500 219.600 C 234.335 219.600,234.245 229.635,234.301 241.900 M116.138 225.106 C 115.884 225.268,123.472 225.400,133.000 225.400 C 142.528 225.400,150.116 225.268,149.862 225.106 C 149.608 224.944,142.020 224.812,133.000 224.812 C 123.980 224.812,116.392 224.944,116.138 225.106 M113.449 227.815 C 113.312 228.173,113.243 242.086,113.295 258.733 L 113.390 289.000 113.595 258.200 C 113.814 225.277,113.822 226.845,113.449 227.815 M152.590 258.600 C 152.590 275.320,152.640 282.102,152.700 273.670 C 152.760 265.239,152.760 251.559,152.700 243.270 C 152.639 234.982,152.590 241.880,152.590 258.600 M120.587 232.421 C 120.440 232.659,120.428 232.961,120.560 233.093 C 120.692 233.225,120.800 233.123,120.800 232.867 C 120.800 232.521,123.971 232.400,132.997 232.400 L 145.195 232.400 145.301 260.600 L 145.408 288.800 145.404 260.500 L 145.400 232.200 133.127 232.094 C 124.657 232.021,120.772 232.122,120.587 232.421 M104.267 289.067 C 103.793 289.541,103.974 295.014,104.480 295.520 C 105.179 296.219,294.821 296.219,295.520 295.520 C 295.812 295.228,295.972 294.015,295.929 292.420 L 295.859 289.800 295.629 292.600 L 295.400 295.400 200.000 295.400 L 104.600 295.400 104.483 292.314 L 104.367 289.227 108.683 289.099 L 113.000 288.970 108.767 288.885 C 106.438 288.838,104.413 288.920,104.267 289.067 M127.300 289.099 C 130.545 289.166,135.855 289.166,139.100 289.099 C 142.345 289.032,139.690 288.977,133.200 288.977 C 126.710 288.977,124.055 289.032,127.300 289.099 M154.505 289.087 C 155.114 289.179,156.014 289.177,156.505 289.082 C 156.997 288.987,156.500 288.911,155.400 288.914 C 154.300 288.917,153.897 288.995,154.505 289.087 M171.500 289.099 C 174.635 289.167,179.765 289.167,182.900 289.099 C 186.035 289.032,183.470 288.976,177.200 288.976 C 170.930 288.976,168.365 289.032,171.500 289.099 M198.300 289.082 C 198.795 289.178,199.605 289.178,200.100 289.082 C 200.595 288.987,200.190 288.909,199.200 288.909 C 198.210 288.909,197.805 288.987,198.300 289.082 M217.100 289.099 C 220.235 289.167,225.365 289.167,228.500 289.099 C 231.635 289.032,229.070 288.976,222.800 288.976 C 216.530 288.976,213.965 289.032,217.100 289.099 M243.705 289.087 C 244.314 289.179,245.214 289.177,245.705 289.082 C 246.197 288.987,245.700 288.911,244.600 288.914 C 243.500 288.917,243.097 288.995,243.705 289.087 M260.900 289.099 C 264.145 289.166,269.455 289.166,272.700 289.099 C 275.945 289.032,273.290 288.977,266.800 288.977 C 260.310 288.977,257.655 289.032,260.900 289.099 M288.400 289.058 C 291.752 289.353,295.602 289.376,295.601 289.100 C 295.600 288.935,293.665 288.830,291.300 288.867 C 288.935 288.904,287.630 288.990,288.400 289.058 M188.200 355.245 C 189.300 355.402,194.610 355.530,200.000 355.530 C 205.390 355.530,210.700 355.402,211.800 355.245 C 212.900 355.089,207.590 354.961,200.000 354.961 C 192.410 354.961,187.100 355.089,188.200 355.245 " stroke="none" fill="#bcbcbc" fill-rule="evenodd"></path></g></svg>